<svg width="597" height="403" viewBox="0 0 597 403" fill="none" xmlns="http://www.w3.org/2000/svg">
<path d="M377.744 175.989L393.235 163.496" stroke="#0E131D" stroke-width="1.5982" stroke-linecap="round"/>
<path d="M285.795 243.201C287.669 242.201 288.793 240.702 289.418 238.953C290.742 235.245 291.746 233.432 293.27 232.526C294.793 231.62 304.25 225.925 303.631 230.412C303.426 231.898 301.648 232.101 299.568 232.927" stroke="#0E131D" stroke-width="1.5982" stroke-linecap="round"/>
<path d="M299.787 220.963C301.603 217.546 304.445 213.116 306.268 210.469C307.657 208.451 308.954 205.922 306.268 201.724C302.91 196.477 288.044 180.736 299.162 179.862C308.057 179.162 325.444 183.609 327.396 179.862C331.561 171.866 339.714 156.225 345.011 157.624C351.633 159.373 352.984 184.609 356.505 185.733C360.026 186.858 386.613 194.728 378.867 200.85C371.122 206.971 358.862 210.469 359.378 214.967C359.664 217.458 359.914 221.518 360.079 225.96M296.19 231.083C295.551 235.086 296.851 237.702 301.788 236.989C317.094 234.779 328.667 228.517 333.893 232.201C339.12 235.884 359.279 253.932 360.026 245.461C360.14 244.165 360.213 242.863 360.253 240.952" stroke="#0E131D" stroke-width="1.5982" stroke-linecap="round"/>
<path d="M379.369 207.971C382.48 204.593 383.055 201.188 381.46 198.713C381.322 198.498 380.994 198.547 380.868 198.77C378.607 202.767 365.185 208.635 360.152 212.575C360.136 212.587 360.123 212.6 360.111 212.615C359.816 213.011 359.309 215.031 359.505 215.716C359.699 216.395 359.986 222.297 360.118 225.426C360.124 225.588 360.251 225.718 360.411 225.743C361.521 225.912 363.518 226.703 366.093 229.832C366.304 230.088 366.75 229.905 366.712 229.575C366.214 225.23 366.082 218.849 366.876 217.715C368.416 215.515 370.374 214.717 372.497 213.343C373.247 212.858 376.048 211.576 379.369 207.971Z" fill="#0E131D"/>
<path d="M356.916 254.774C359.047 256.121 363.278 256.532 364.385 254.774C364.938 253.897 365.292 251.393 365.505 248.073C364.309 247.773 362.876 242.451 360.378 241.452C360.326 244.541 360.161 246.265 359.625 247.188C356.62 252.357 335.766 233.081 332.447 231.673C329.323 230.348 308.415 236.104 302.506 237.203C297.779 238.082 296.278 235.43 295.539 234.331C295.789 236.579 297.831 242.635 300.797 243.267C303.379 243.817 330.748 235.916 333.417 237.904C341.466 243.899 355.155 253.662 356.916 254.774Z" fill="#0E131D"/>
<path d="M292.666 232.457C293.828 230.418 297.92 224.246 304.16 226.416" stroke="#0E131D" stroke-width="1.5982" stroke-linecap="round"/>
<path d="M292.291 233.206C293.391 229.848 298.359 221.193 303.16 223.273" stroke="#0E131D" stroke-width="1.5982" stroke-linecap="round"/>
<path d="M294.416 228.709C295.124 222.369 297.072 216.119 299.607 218.082C299.959 218.445 300.505 219.553 299.871 221.08" stroke="#0E131D" stroke-width="1.5982" stroke-linecap="round"/>
<path d="M361.753 230.852C359.149 229.839 353.705 228.842 352.758 232.956" stroke="#0E131D" stroke-width="1.5982" stroke-linecap="round"/>
<path d="M366.251 236.704C361.66 233.859 353.16 230.363 353.791 235.847" stroke="#0E131D" stroke-width="1.5982" stroke-linecap="round"/>
<path d="M363.928 238.824C360.404 236.885 353.653 234.185 354.301 238.561C354.324 238.711 354.456 238.823 354.608 238.829C356.792 238.916 361.186 240.089 363.21 244.279C365.317 248.644 367.282 250.209 368 250.447" stroke="#0E131D" stroke-width="1.5982" stroke-linecap="round"/>
<path d="M393.484 188.731L402.479 186.232" stroke="#0E131D" stroke-width="1.5982" stroke-linecap="round"/>
<path d="M292.542 164.745L284.297 156" stroke="#0E131D" stroke-width="1.5982" stroke-linecap="round"/>
<path d="M279.049 175.988L255.312 169.242" stroke="#0E131D" stroke-width="1.5982" stroke-linecap="round"/>
<path d="M277.551 194.978L260.561 196.977" stroke="#0E131D" stroke-width="1.5982" stroke-linecap="round"/>
<path d="M295.533 295.413C287.615 285.247 288.229 270.433 290.103 261.768C291.251 257.875 297.649 238.835 283.966 247.836C277.663 251.982 250.924 308.558 305.698 319.467C305.875 319.502 306 319.679 305.963 319.856C303.914 329.555 308.629 339.172 306.034 352.763" stroke="#0E131D" stroke-width="1.5982" stroke-linecap="round"/>
<path d="M294.291 296.046C296.956 295.546 313.53 289.821 319.777 297.168" stroke="#0E131D" stroke-width="1.5982" stroke-linecap="round"/>
<path d="M341.764 298.641C351.008 293.422 360.128 299.311 368.249 300.918" stroke="#0E131D" stroke-width="1.5982" stroke-linecap="round"/>
<path d="M366.251 300.418C372.173 294.83 377.334 276.894 371.561 256.725C370.441 252.813 370.767 242.947 378.197 247.342C387.573 252.888 415.971 319.359 353.057 319.656C352.85 319.657 352.68 319.849 352.727 320.051C355.003 329.757 355.403 340.861 355.32 352.482" stroke="#0E131D" stroke-width="1.5982" stroke-linecap="round"/>
<path d="M373.246 241.702C370.402 236.118 364.462 225.402 360.195 225.983C359.342 226.099 357.313 226.681 356.506 227.961" stroke="#0E131D" stroke-width="1.5982" stroke-linecap="round"/>
<path d="M349.672 265.447C347.846 272.029 346.93 272.612 344.273 275.528C344.273 272.647 343.777 267.81 343.777 265.795C335.071 265.795 327.725 262.232 325.136 260.45C325.231 266.492 319.579 270.443 319.579 270.443C319.579 270.443 320.39 272.883 320.853 278.345C321.226 282.714 320.158 281.87 319.579 280.901C317.913 275.509 315.182 276.95 314.022 278.345C299.816 255.2 321.664 250.728 325.832 251.154C328.981 248.458 333.373 246.346 336.46 246.036C347.597 244.918 352.636 254.776 349.672 265.447Z" fill="#0E131D"/>
<path d="M319.526 285.163C321.039 294.304 331.189 300.877 338.515 293.472C345.841 286.067 344.375 272.513 343.592 266.188" stroke="#0E131D" stroke-width="1.5982" stroke-linecap="round"/>
<path d="M337.943 299.662C338.682 297.446 338.009 295.955 337.352 295.671C333.408 299.42 327.427 298.029 325.209 295.757C324.42 296.506 324.88 298.724 325.209 299.406C329.481 304.314 335.56 301.564 337.943 299.662Z" fill="#0E131D"/>
<path d="M322.275 312.412L322.625 311.869C324.455 309.028 328.049 307.894 331.179 309.17V309.17C333.991 310.317 337.222 309.525 339.186 307.209L341.764 304.167" stroke="#0E131D" stroke-width="1.5982" stroke-linecap="round"/>
<path d="M313.83 277.681C312.95 279.857 313.775 284.677 319.527 284.677" stroke="#0E131D" stroke-width="1.5982" stroke-linecap="round"/>
<path d="M316.57 279.181C316.438 279.541 316.543 280.397 318.027 280.93" stroke="#0E131D" stroke-width="1.5982" stroke-linecap="round"/>
<path d="M343.513 283.678C345.522 282.879 346.94 279.921 346.394 275.183" stroke="#0E131D" stroke-width="1.5982" stroke-linecap="round"/>
<path d="M338.104 277.784C338.695 277.417 338.857 276.608 338.466 275.978C338.075 275.347 337.279 275.133 336.688 275.5C336.096 275.867 335.934 276.675 336.325 277.306C336.716 277.936 337.513 278.15 338.104 277.784Z" fill="#0E131D"/>
<path d="M327.834 278.75C328.545 278.408 328.892 277.656 328.61 277.071C328.328 276.487 327.523 276.29 326.813 276.632C326.103 276.975 325.756 277.727 326.038 278.311C326.32 278.896 327.124 279.093 327.834 278.75Z" fill="#0E131D"/>
<path d="M324.524 274.683C324.798 274.049 325.983 272.878 328.521 273.258" stroke="#0E131D" stroke-width="1.5982" stroke-linecap="round"/>
<path d="M336.518 273.184C337.085 272.995 338.63 272.731 340.266 273.184" stroke="#0E131D" stroke-width="1.5982" stroke-linecap="round"/>
<path d="M332.14 277.431C331.967 278.943 331.847 282.01 332.77 282.179" stroke="#0E131D" stroke-width="1.5982" stroke-linecap="round"/>
<path d="M333.02 289.566C331.251 290.08 331.363 288.666 330.021 287.426" stroke="#0E131D" stroke-width="1.5982" stroke-linecap="round"/>
<path d="M408.378 401.718L398.918 364.795C397.106 357.724 390.734 352.78 383.436 352.78H277.653C270.308 352.78 263.908 357.786 262.141 364.916L252.916 402.123" stroke="#0E131D" stroke-width="1.5982" stroke-linecap="round"/>
<path d="M258.862 374.776H195.383C188.869 374.776 183.007 378.73 180.566 384.769L173.551 402.123" stroke="#0E131D" stroke-width="1.5982" stroke-linecap="round"/>
<path d="M405.703 386.963H470.774C477.28 386.963 483.137 390.907 485.583 396.936L487.447 401.529" stroke="#0E131D" stroke-width="1.5982" stroke-linecap="round"/>
<circle cx="512.424" cy="230.904" r="1" transform="rotate(163.097 512.424 230.904)" fill="#0E131D"/>
<circle cx="498.114" cy="245.705" r="1" transform="rotate(163.097 498.114 245.705)" fill="#0E131D"/>
<circle cx="463.424" cy="241.614" r="1" transform="rotate(163.097 463.424 241.614)" fill="#0E131D"/>
<circle cx="471.366" cy="252.266" r="0.5" transform="rotate(163.097 471.366 252.266)" fill="#0E131D"/>
<circle cx="506.361" cy="209.231" r="0.5" transform="rotate(163.097 506.361 209.231)" fill="#0E131D"/>
<circle cx="481.088" cy="172.492" r="1" transform="rotate(163.097 481.088 172.492)" fill="#0E131D"/>
<circle cx="505.895" cy="132.032" r="2.5" transform="rotate(163.097 505.895 132.032)" fill="#0E131D"/>
<circle cx="436.091" cy="151.676" r="2" transform="rotate(163.097 436.091 151.676)" fill="#0E131D"/>
<circle cx="421.036" cy="253.45" r="2" transform="rotate(163.097 421.036 253.45)" fill="#0E131D"/>
<circle cx="453.315" cy="253.048" r="2" transform="rotate(163.097 453.315 253.048)" fill="#0E131D"/>
<circle cx="440.723" cy="215.067" r="1" transform="rotate(163.097 440.723 215.067)" fill="#0E131D"/>
<circle cx="475.608" cy="140.711" r="1" transform="rotate(163.097 475.608 140.711)" fill="#0E131D"/>
<circle cx="568.729" cy="171.988" r="1" transform="rotate(163.097 568.729 171.988)" fill="#0E131D"/>
<circle cx="460.057" cy="130.805" r="1" transform="rotate(163.097 460.057 130.805)" fill="#0E131D"/>
<circle cx="454.105" cy="140.453" r="0.5" transform="rotate(163.097 454.105 140.453)" fill="#0E131D"/>
<circle cx="395.743" cy="252.774" r="1" transform="rotate(163.097 395.743 252.774)" fill="#0E131D"/>
<circle cx="400.819" cy="252.278" r="2" transform="rotate(163.097 400.819 252.278)" fill="#0E131D"/>
<circle cx="1" cy="1" r="1" transform="matrix(-0.956798 -0.290753 -0.290753 0.956798 525.672 247.267)" fill="#0E131D"/>
<circle cx="1" cy="1" r="1" transform="matrix(-0.956798 -0.290753 -0.290753 0.956798 511.361 232.466)" fill="#0E131D"/>
<circle cx="1" cy="1" r="1" transform="matrix(-0.956798 -0.290753 -0.290753 0.956798 476.672 236.557)" fill="#0E131D"/>
<circle cx="0.5" cy="0.5" r="0.5" transform="matrix(-0.956798 -0.290753 -0.290753 0.956798 483.99 226.238)" fill="#0E131D"/>
<circle cx="0.5" cy="0.5" r="0.5" transform="matrix(-0.956798 -0.290753 -0.290753 0.956798 518.984 269.273)" fill="#0E131D"/>
<circle cx="1" cy="1" r="1" transform="matrix(-0.956798 -0.290753 -0.290753 0.956798 494.336 305.679)" fill="#0E131D"/>
<circle cx="2.5" cy="2.5" r="2.5" transform="matrix(-0.956798 -0.290753 -0.290753 0.956798 521.014 345.14)" fill="#0E131D"/>
<circle cx="2" cy="2" r="2" transform="matrix(-0.956798 -0.290753 -0.290753 0.956798 450.586 325.829)" fill="#0E131D"/>
<circle cx="2" cy="2" r="2" transform="matrix(-0.956798 -0.290753 -0.290753 0.956798 435.531 224.055)" fill="#0E131D"/>
<circle cx="2" cy="2" r="2" transform="matrix(-0.956798 -0.290753 -0.290753 0.956798 467.811 224.457)" fill="#0E131D"/>
<circle cx="1" cy="1" r="1" transform="matrix(-0.956798 -0.290753 -0.290753 0.956798 453.971 263.104)" fill="#0E131D"/>
<circle cx="1" cy="1" r="1" transform="matrix(-0.956798 -0.290753 -0.290753 0.956798 488.855 337.459)" fill="#0E131D"/>
<circle cx="1" cy="1" r="1" transform="matrix(-0.956798 -0.290753 -0.290753 0.956798 581.977 306.183)" fill="#0E131D"/>
<circle cx="1" cy="1" r="1" transform="matrix(-0.956798 -0.290753 -0.290753 0.956798 473.305 347.365)" fill="#0E131D"/>
<circle cx="0.5" cy="0.5" r="0.5" transform="matrix(-0.956798 -0.290753 -0.290753 0.956798 466.729 338.051)" fill="#0E131D"/>
<circle cx="1" cy="1" r="1" transform="matrix(-0.956798 -0.290753 -0.290753 0.956798 408.99 225.397)" fill="#0E131D"/>
<circle cx="2" cy="2" r="2" transform="matrix(-0.956798 -0.290753 -0.290753 0.956798 415.314 225.227)" fill="#0E131D"/>
<circle cx="1" cy="1" r="1" transform="matrix(-0.956798 -0.290753 -0.290753 0.956798 234.672 147.267)" fill="#0E131D"/>
<circle cx="1" cy="1" r="1" transform="matrix(-0.956798 -0.290753 -0.290753 0.956798 220.361 132.466)" fill="#0E131D"/>
<circle cx="1" cy="1" r="1" transform="matrix(-0.956798 -0.290753 -0.290753 0.956798 185.672 136.557)" fill="#0E131D"/>
<circle cx="0.5" cy="0.5" r="0.5" transform="matrix(-0.956798 -0.290753 -0.290753 0.956798 192.99 126.238)" fill="#0E131D"/>
<circle cx="0.5" cy="0.5" r="0.5" transform="matrix(-0.956798 -0.290753 -0.290753 0.956798 227.984 169.273)" fill="#0E131D"/>
<circle cx="1" cy="1" r="1" transform="matrix(-0.956798 -0.290753 -0.290753 0.956798 203.336 205.679)" fill="#0E131D"/>
<circle cx="2.5" cy="2.5" r="2.5" transform="matrix(-0.956798 -0.290753 -0.290753 0.956798 230.014 245.14)" fill="#0E131D"/>
<circle cx="2" cy="2" r="2" transform="matrix(-0.956798 -0.290753 -0.290753 0.956798 159.586 225.829)" fill="#0E131D"/>
<circle cx="2" cy="2" r="2" transform="matrix(-0.956798 -0.290753 -0.290753 0.956798 144.531 124.055)" fill="#0E131D"/>
<circle cx="2" cy="2" r="2" transform="matrix(-0.956798 -0.290753 -0.290753 0.956798 176.811 124.457)" fill="#0E131D"/>
<circle cx="1" cy="1" r="1" transform="matrix(-0.956798 -0.290753 -0.290753 0.956798 162.971 163.104)" fill="#0E131D"/>
<circle cx="1" cy="1" r="1" transform="matrix(-0.956798 -0.290753 -0.290753 0.956798 197.855 237.459)" fill="#0E131D"/>
<circle cx="1" cy="1" r="1" transform="matrix(-0.956798 -0.290753 -0.290753 0.956798 290.977 206.183)" fill="#0E131D"/>
<circle cx="1" cy="1" r="1" transform="matrix(-0.956798 -0.290753 -0.290753 0.956798 182.305 247.366)" fill="#0E131D"/>
<circle cx="0.5" cy="0.5" r="0.5" transform="matrix(-0.956798 -0.290753 -0.290753 0.956798 175.729 238.051)" fill="#0E131D"/>
<circle cx="1" cy="1" r="1" transform="matrix(-0.956798 -0.290753 -0.290753 0.956798 117.99 125.396)" fill="#0E131D"/>
<circle cx="2" cy="2" r="2" transform="matrix(-0.956798 -0.290753 -0.290753 0.956798 124.314 125.227)" fill="#0E131D"/>
<circle cx="1" cy="1" r="1" transform="matrix(0.956798 0.290753 0.290753 -0.956798 70.8418 288.57)" fill="#0E131D"/>
<circle cx="1" cy="1" r="1" transform="matrix(0.956798 0.290753 0.290753 -0.956798 85.1523 303.371)" fill="#0E131D"/>
<circle cx="1" cy="1" r="1" transform="matrix(0.956798 0.290753 0.290753 -0.956798 119.842 299.281)" fill="#0E131D"/>
<circle cx="0.5" cy="0.5" r="0.5" transform="matrix(0.956798 0.290753 0.290753 -0.956798 112.523 309.599)" fill="#0E131D"/>
<circle cx="0.5" cy="0.5" r="0.5" transform="matrix(0.956798 0.290753 0.290753 -0.956798 77.5293 266.564)" fill="#0E131D"/>
<circle cx="1" cy="1" r="1" transform="matrix(0.956798 0.290753 0.290753 -0.956798 102.178 230.158)" fill="#0E131D"/>
<circle cx="2.5" cy="2.5" r="2.5" transform="matrix(0.956798 0.290753 0.290753 -0.956798 75.5 190.697)" fill="#0E131D"/>
<circle cx="2" cy="2" r="2" transform="matrix(0.956798 0.290753 0.290753 -0.956798 145.928 210.008)" fill="#0E131D"/>
<circle cx="2" cy="2" r="2" transform="matrix(0.956798 0.290753 0.290753 -0.956798 160.982 311.783)" fill="#0E131D"/>
<circle cx="2" cy="2" r="2" transform="matrix(0.956798 0.290753 0.290753 -0.956798 128.703 311.38)" fill="#0E131D"/>
<circle cx="1" cy="1" r="1" transform="matrix(0.956798 0.290753 0.290753 -0.956798 142.543 272.734)" fill="#0E131D"/>
<circle cx="1" cy="1" r="1" transform="matrix(0.956798 0.290753 0.290753 -0.956798 107.658 198.378)" fill="#0E131D"/>
<circle cx="1" cy="1" r="1" transform="matrix(0.956798 0.290753 0.290753 -0.956798 14.5371 229.654)" fill="#0E131D"/>
<circle cx="1" cy="1" r="1" transform="matrix(0.956798 0.290753 0.290753 -0.956798 123.209 188.472)" fill="#0E131D"/>
<circle cx="0.5" cy="0.5" r="0.5" transform="matrix(0.956798 0.290753 0.290753 -0.956798 129.785 197.786)" fill="#0E131D"/>
<circle cx="1" cy="1" r="1" transform="matrix(0.956798 0.290753 0.290753 -0.956798 187.523 310.44)" fill="#0E131D"/>
<circle cx="2" cy="2" r="2" transform="matrix(0.956798 0.290753 0.290753 -0.956798 181.199 310.61)" fill="#0E131D"/>
<circle cx="300.832" cy="21.6832" r="1" transform="rotate(7.96714 300.832 21.6832)" fill="#0E131D"/>
<circle cx="320.041" cy="14.273" r="1" transform="rotate(7.96714 320.041 14.273)" fill="#0E131D"/>
<circle cx="349.793" cy="32.5738" r="1" transform="rotate(7.96714 349.793 32.5738)" fill="#0E131D"/>
<circle cx="347.068" cy="19.5698" r="0.5" transform="rotate(7.96714 347.068 19.5698)" fill="#0E131D"/>
<circle cx="297.217" cy="43.896" r="0.5" transform="rotate(7.96714 297.217 43.896)" fill="#0E131D"/>
<circle cx="304.694" cy="87.8565" r="1" transform="rotate(7.96714 304.694 87.8565)" fill="#0E131D"/>
<circle cx="265.174" cy="114.132" r="2.5" transform="rotate(7.96714 265.174 114.132)" fill="#0E131D"/>
<circle cx="336.764" cy="125.667" r="2" transform="rotate(7.96714 336.764 125.667)" fill="#0E131D"/>
<circle cx="393.227" cy="39.6622" r="2" transform="rotate(7.96714 393.227 39.6622)" fill="#0E131D"/>
<circle cx="363.772" cy="26.4518" r="2" transform="rotate(7.96714 363.772 26.4518)" fill="#0E131D"/>
<circle cx="359.221" cy="66.2051" r="1" transform="rotate(7.96714 359.221 66.2051)" fill="#0E131D"/>
<circle cx="296.303" cy="118.995" r="1" transform="rotate(7.96714 296.303 118.995)" fill="#0E131D"/>
<circle cx="224.971" cy="51.4556" r="1" transform="rotate(7.96714 224.971 51.4556)" fill="#0E131D"/>
<circle cx="306.244" cy="134.522" r="1" transform="rotate(7.96714 306.244 134.522)" fill="#0E131D"/>
<circle cx="315.701" cy="128.272" r="0.5" transform="rotate(7.96714 315.701 128.272)" fill="#0E131D"/>
<circle cx="415.887" cy="50.9126" r="1" transform="rotate(7.96714 415.887 50.9126)" fill="#0E131D"/>
<circle cx="411.078" cy="49.2286" r="2" transform="rotate(7.96714 411.078 49.2286)" fill="#0E131D"/>
</svg>
