<svg width="181" height="240" viewBox="0 0 181 240" fill="none" xmlns="http://www.w3.org/2000/svg">
<path d="M149.536 25.2242L168.249 10.1335" stroke="black" stroke-width="2" stroke-linecap="round"/>
<path d="M38.4688 106.412C40.7323 105.205 42.0905 103.394 42.845 101.281C44.4449 96.8017 45.6573 94.6125 47.4978 93.518C49.3383 92.4236 60.7614 85.544 60.0132 90.9645C59.7655 92.7587 57.6183 93.0042 55.1052 94.0026" stroke="black" stroke-width="2" stroke-linecap="round"/>
<path d="M55.3709 79.5504C57.5642 75.423 60.9975 70.0715 63.1993 66.8745C64.878 64.4369 66.4438 61.3815 63.1993 56.311C59.1436 49.973 41.1858 30.9588 54.6165 29.9024C65.361 29.0574 86.3634 34.4296 88.7212 29.9025C93.7514 20.2444 103.601 1.35091 109.999 3.04106C117.997 5.15375 119.629 35.6367 123.882 36.9949C128.136 38.353 160.251 47.8601 150.895 55.2545C141.538 62.6489 126.73 66.8745 127.353 72.3071C127.699 75.3164 128 80.2204 128.2 85.5867M51.0261 91.7739C50.2546 96.6099 51.825 99.7693 57.7879 98.9084C76.2767 96.2389 90.2559 88.6753 96.5692 93.1245C102.882 97.5737 127.234 119.375 128.136 109.141C128.273 107.576 128.361 106.003 128.41 103.695" stroke="black" stroke-width="2" stroke-linecap="round"/>
<path d="M151.498 63.8561C154.845 60.2219 155.763 56.5624 154.562 53.6931C154.253 52.9543 153.158 53.0699 152.639 53.6798C148.587 58.4413 134.056 64.9254 128.329 69.3841C128.28 69.4222 128.237 69.4616 128.204 69.5141C127.845 70.0867 127.274 72.4089 127.504 73.2123C127.727 73.994 128.053 80.5162 128.221 84.3967C128.243 84.9041 128.643 85.3067 129.134 85.4352C130.244 85.7256 131.85 86.5009 133.827 88.4591C134.565 89.1902 136.059 88.5645 135.977 87.5287C135.585 82.5921 135.588 76.7967 136.407 75.6268C138.267 72.9693 140.632 72.0051 143.198 70.3451C144.103 69.7592 147.486 68.2111 151.498 63.8561Z" fill="black"/>
<path d="M124.379 120.393C126.953 122.019 132.063 122.516 133.401 120.393C134.068 119.333 134.497 116.309 134.753 112.298C133.309 111.935 131.578 105.507 128.56 104.3C128.498 108.032 128.299 110.114 127.651 111.228C124.021 117.473 98.8316 94.1888 94.8225 92.4877C91.049 90.8867 65.7929 97.8398 58.6552 99.1676C52.945 100.23 51.132 97.0256 50.2397 95.6979C50.5416 98.4142 53.0083 105.728 56.5904 106.492C59.7099 107.157 92.77 97.6132 95.9934 100.014C105.716 107.256 122.252 119.049 124.379 120.393Z" fill="black"/>
<path d="M46.7695 93.4343C48.1735 90.971 53.1161 83.5163 60.6529 86.138" stroke="black" stroke-width="2" stroke-linecap="round"/>
<path d="M46.3159 94.3395C47.6449 90.2829 53.6454 79.8285 59.4448 82.341" stroke="black" stroke-width="2" stroke-linecap="round"/>
<path d="M48.8818 88.907C49.7368 81.2486 52.0904 73.7 55.1525 76.0705C55.5778 76.5094 56.237 77.848 55.4715 79.6917" stroke="black" stroke-width="2" stroke-linecap="round"/>
<path d="M130.221 91.4958C127.076 90.2721 120.499 89.0671 119.355 94.0375" stroke="black" stroke-width="2" stroke-linecap="round"/>
<path d="M135.653 98.5648C130.108 95.1279 119.84 90.9044 120.602 97.5294" stroke="black" stroke-width="2" stroke-linecap="round"/>
<path d="M132.847 101.125C128.732 98.8609 120.973 95.7378 121.17 100.308C121.19 100.784 121.617 101.122 122.091 101.165C124.853 101.419 129.681 102.957 131.979 107.715C134.525 112.987 136.898 114.878 137.766 115.165" stroke="black" stroke-width="2" stroke-linecap="round"/>
<path d="M168.55 40.6168L179.416 37.5986" stroke="black" stroke-width="2" stroke-linecap="round"/>
<path d="M46.618 11.6428L36.6582 1.07935" stroke="black" stroke-width="2" stroke-linecap="round"/>
<path d="M30.3202 25.2241L1.64795 17.0752" stroke="black" stroke-width="2" stroke-linecap="round"/>
<path d="M28.5096 48.1624L7.98633 50.5769" stroke="black" stroke-width="2" stroke-linecap="round"/>
<path d="M50.232 169.481C40.6668 157.201 41.4087 139.307 43.6729 128.84C45.0596 124.137 52.7878 101.139 36.2592 112.011C28.6707 117.003 -3.44426 184.917 61.8706 198.406C62.4234 198.52 62.8106 199.071 62.7067 199.626C60.5533 211.133 65.9947 222.628 62.9156 238.756" stroke="black" stroke-width="2" stroke-linecap="round"/>
<path d="M48.7305 170.245C51.9498 169.642 71.97 162.726 79.5154 171.601" stroke="black" stroke-width="2" stroke-linecap="round"/>
<path d="M106.076 173.38C117.243 167.076 128.259 174.189 138.068 176.131" stroke="black" stroke-width="2" stroke-linecap="round"/>
<path d="M135.653 175.526C142.807 168.777 149.041 147.111 142.067 122.749C140.715 118.023 141.109 106.106 150.083 111.414C161.368 118.089 195.468 197.837 120.521 198.758C119.874 198.765 119.35 199.37 119.492 200.001C122.087 211.544 122.547 224.681 122.449 238.417" stroke="black" stroke-width="2" stroke-linecap="round"/>
<path d="M144.104 104.601C140.668 97.8568 133.492 84.9121 128.339 85.6146C127.309 85.7551 124.857 86.4577 123.882 88.0033" stroke="black" stroke-width="2" stroke-linecap="round"/>
<path d="M115.629 133.284C113.423 141.234 112.316 141.939 109.107 145.461C109.107 141.98 108.508 136.137 108.508 133.704C97.9916 133.704 89.1176 129.4 85.9913 127.248C86.1054 134.546 79.2787 139.319 79.2787 139.319C79.2787 139.319 80.2574 142.266 80.8176 148.863C81.2672 154.141 79.9772 153.121 79.2787 151.951C77.2659 145.438 73.9667 147.179 72.5661 148.863C55.406 120.906 81.7963 115.504 86.8316 116.019C90.6358 112.763 95.9408 110.211 99.6689 109.836C113.122 108.487 119.208 120.393 115.629 133.284Z" fill="black"/>
<path d="M79.2143 157.1C81.0418 168.141 93.3032 176.081 102.153 167.136C111.002 158.192 109.23 141.819 108.285 134.179" stroke="black" stroke-width="2" stroke-linecap="round"/>
<path d="M101.46 174.613C102.353 171.937 101.539 170.136 100.745 169.793C95.9818 174.321 88.7572 172.64 86.0778 169.896C85.1251 170.801 85.6808 173.48 86.0778 174.304C91.2381 180.232 98.5818 176.911 101.46 174.613Z" fill="black"/>
<path d="M82.5337 190.014L82.9561 189.359C85.167 185.927 89.5083 184.558 93.288 186.099V186.099C96.6852 187.484 100.588 186.528 102.96 183.729L106.075 180.054" stroke="black" stroke-width="2" stroke-linecap="round"/>
<path d="M72.3314 148.062C71.2689 150.69 72.2659 156.513 79.2139 156.513" stroke="black" stroke-width="2" stroke-linecap="round"/>
<path d="M75.6419 149.873C75.4835 150.309 75.6102 151.342 77.4028 151.986" stroke="black" stroke-width="2" stroke-linecap="round"/>
<path d="M108.188 155.306C110.614 154.341 112.326 150.767 111.667 145.044" stroke="black" stroke-width="2" stroke-linecap="round"/>
<path d="M101.654 148.186C102.368 147.743 102.564 146.766 102.091 146.005C101.619 145.243 100.657 144.984 99.9429 145.427C99.2288 145.87 99.0329 146.847 99.5053 147.608C99.9777 148.37 100.94 148.629 101.654 148.186Z" fill="black"/>
<path d="M89.2487 149.354C90.1066 148.94 90.5259 148.032 90.1852 147.326C89.8446 146.619 88.873 146.382 88.0152 146.795C87.1573 147.209 86.7381 148.117 87.0787 148.824C87.4193 149.53 88.3909 149.767 89.2487 149.354Z" fill="black"/>
<path d="M85.2501 144.44C85.5812 143.675 87.0127 142.26 90.0791 142.719" stroke="black" stroke-width="2" stroke-linecap="round"/>
<path d="M99.7365 142.63C100.422 142.402 102.288 142.083 104.264 142.63" stroke="black" stroke-width="2" stroke-linecap="round"/>
<path d="M94.4496 147.76C94.2413 149.586 94.0964 153.291 95.2104 153.494" stroke="black" stroke-width="2" stroke-linecap="round"/>
<path d="M95.5119 162.419C93.3751 163.039 93.51 161.331 91.8901 159.833" stroke="black" stroke-width="2" stroke-linecap="round"/>
</svg>
