<svg width="118" height="32" viewBox="0 0 118 32" fill="none" xmlns="http://www.w3.org/2000/svg">
<g clip-path="url(#clip0_1751_12185)">
<rect y="4" width="24" height="24" rx="4" fill="#ECF0FF"/>
<path d="M-18.1952 13.5026C-21.5825 7.63548 -19.0364 0.619462 -12.0747 -3.39988C-5.11301 -7.41921 1.48996 -6.09409 5.029 0.0357101L-2.02027 4.10561C-3.33477 1.82883 -5.85128 1.4136 -8.52212 2.95561C-11.4119 4.62402 -12.4925 6.99926 -11.2538 9.14469C-10.1162 11.115 -8.55307 11.4968 -5.99822 10.6639L-0.556751 8.86503C5.9053 6.7104 10.2563 7.87624 13.2139 12.999C16.8288 19.2601 14.2759 26.1633 6.83255 30.4607C-0.391852 34.6317 -7.32659 33.4398 -10.8403 27.3538L-3.79108 23.2839C-2.42602 25.6482 0.0837134 25.9506 3.23618 24.1305C6.43243 22.2852 7.71342 19.8526 6.52531 17.7947C5.48888 15.9996 4.12612 15.5604 1.72791 16.3612L-3.80113 18.2107C-10.2632 20.3653 -15.1364 18.8005 -18.1952 13.5026Z" fill="#465FF1" fill-opacity="0.5"/>
</g>
<path d="M44.88 18.952H41.016V25H37.944V7.456H44.88C48.408 7.456 50.688 9.76 50.688 13.192C50.688 16.576 48.384 18.952 44.88 18.952ZM44.28 10.192H41.016V16.216H44.232C46.344 16.216 47.472 15.088 47.472 13.168C47.472 11.248 46.32 10.192 44.28 10.192ZM55.7921 25H52.8881V7.144H55.7921V25ZM62.3916 25.312C59.8716 25.312 58.3356 23.848 58.3356 21.616C58.3356 19.432 59.9196 18.064 62.7276 17.848L66.2796 17.584V17.32C66.2796 15.712 65.3196 15.064 63.8316 15.064C62.1036 15.064 61.1436 15.784 61.1436 17.032H58.6476C58.6476 14.464 60.7596 12.784 63.9756 12.784C67.1676 12.784 69.1356 14.512 69.1356 17.8V25H66.5676L66.3516 23.248C65.8476 24.472 64.2396 25.312 62.3916 25.312ZM63.3516 23.104C65.1516 23.104 66.3036 22.024 66.3036 20.2V19.576L63.8316 19.768C62.0076 19.936 61.3116 20.536 61.3116 21.496C61.3116 22.576 62.0316 23.104 63.3516 23.104ZM70.6519 30.496V28.048H72.4039C73.5559 28.048 74.2759 27.784 74.7799 26.392L75.1159 25.504L70.3399 13.144H73.4359L76.4839 21.784L79.6999 13.144H82.7239L76.9159 27.64C76.0279 29.848 74.7799 30.76 72.8359 30.76C72.0199 30.76 71.2999 30.664 70.6519 30.496ZM92.235 25.288C87.123 25.288 83.811 21.736 83.811 16.24C83.811 10.792 87.243 7.168 92.379 7.168C96.531 7.168 99.627 9.592 100.227 13.36H96.987C96.387 11.32 94.635 10.12 92.307 10.12C89.067 10.12 87.027 12.472 87.027 16.216C87.027 19.936 89.091 22.336 92.307 22.336C94.683 22.336 96.507 21.088 97.083 19.144H100.275C99.603 22.84 96.387 25.288 92.235 25.288ZM107.481 25L100.857 7.456H104.121L107.961 17.56C108.345 18.616 108.681 19.648 109.065 21.064C109.497 19.528 109.857 18.448 110.193 17.56L113.985 7.456H117.177L110.649 25H107.481Z" fill="black"/>
<defs>
<clipPath id="clip0_1751_12185">
<rect y="4" width="24" height="24" rx="4" fill="white"/>
</clipPath>
</defs>
</svg>
