<svg width="416" height="260" viewBox="0 0 416 260" fill="none" xmlns="http://www.w3.org/2000/svg">
<path d="M133.361 70.6419C113.477 65.4066 90.9301 72.0875 77.1076 87.3111C63.2858 102.534 58.8052 125.62 65.9301 144.908C69.3158 154.074 75.1169 162.526 76.1978 172.237C77.2827 181.981 73.065 192.153 65.4043 198.271C53.8414 207.504 36.9126 206.911 24.6589 215.205C12.5894 223.375 7.28886 240.253 12.5209 253.855H347.644C350.868 231.233 311.785 217.372 309.392 194.647C308.249 183.802 315.398 174.061 321.74 165.191C337.936 142.544 351.511 116.704 352.703 88.8865C353.896 61.0691 340.002 31.2157 314.309 20.4881C286.105 8.7115 252.513 23.1756 232.512 46.2875C222.962 57.3232 215.416 70.3657 203.734 79.1146C185.503 92.7667 155.388 76.441 133.361 70.6419Z" fill="#E9E9FF"/>
<path d="M373.243 257.916H4.83796C2.34274 257.916 0.300781 255.874 0.300781 253.379C0.300781 250.884 2.34208 248.842 4.83796 248.842H373.243C375.738 248.842 377.78 250.884 377.78 253.379C377.78 255.874 375.738 257.916 373.243 257.916Z" fill="#BBBBFF"/>
<mask id="mask0_1751_12473" style="mask-type:luminance" maskUnits="userSpaceOnUse" x="4" y="0" width="170" height="171">
<path d="M89.1962 170.736C135.907 170.736 173.773 132.515 173.773 85.3678C173.773 38.2204 135.907 0 89.1962 0C42.4856 0 4.61914 38.2204 4.61914 85.3678C4.61914 132.515 42.4856 170.736 89.1962 170.736Z" fill="white"/>
</mask>
<g mask="url(#mask0_1751_12473)">
<path d="M89.1962 170.736C135.907 170.736 173.773 132.515 173.773 85.3678C173.773 38.2204 135.907 0 89.1962 0C42.4856 0 4.61914 38.2204 4.61914 85.3678C4.61914 132.515 42.4856 170.736 89.1962 170.736Z" fill="#FFA9A9"/>
</g>
<mask id="mask1_1751_12473" style="mask-type:luminance" maskUnits="userSpaceOnUse" x="4" y="0" width="170" height="171">
<path d="M89.1962 170.736C135.907 170.736 173.773 132.515 173.773 85.3678C173.773 38.2204 135.907 0 89.1962 0C42.4856 0 4.61914 38.2204 4.61914 85.3678C4.61914 132.515 42.4856 170.736 89.1962 170.736Z" fill="white"/>
</mask>
<g mask="url(#mask1_1751_12473)">
<path d="M76.1794 32.953C71.4539 32.0318 66.9154 35.8622 65.0498 40.3002C63.1842 44.7382 63.2208 49.702 62.6578 54.4834C62.0947 59.2649 60.6651 64.3511 56.8314 67.2637C54.8972 68.7332 52.5232 69.506 50.4932 70.8391C45.7477 73.9539 43.3829 80.2862 44.9244 85.7491C46.5357 91.4571 51.9008 96.8135 49.7937 102.358C49.1787 103.976 47.9833 105.292 46.9876 106.707C43.7689 111.282 42.5936 117.241 43.8335 122.696H136.773C137.973 114.791 131.225 107.029 130.189 99.1004C128.84 88.7801 138.4 78.2129 134.073 68.7465C132.004 64.2193 128.751 65.6124 127.277 60.8576C125.732 55.8725 139.19 50.6458 131.713 37.8722C126.874 29.6058 115.167 32.2129 108.368 31.6185C97.4417 30.6634 86.945 35.0528 76.1794 32.953Z" fill="#472A1C"/>
<path d="M38.348 238.713H138.443C137.395 234.117 136.716 229.49 137.02 224.773C137.926 210.731 147.387 198.264 151.776 185.201C153.569 179.864 154.516 174.427 153.685 168.741C151.436 153.346 136.836 143.301 122.642 138.476C100.364 130.903 75.6524 131.376 53.6534 139.798C38.6182 145.556 27.5299 159.256 24.8762 175.767C21.5684 196.344 35.7323 207.714 37.8768 226.344C38.3507 230.457 38.4631 234.583 38.348 238.713Z" fill="#383138"/>
<path d="M163.375 238.713C170.086 228.967 174.679 217.656 176.33 205.766C171.021 193.454 163.791 177.933 156.576 166.726C154.049 162.802 151.314 158.855 147.488 156.322C143.663 153.788 138.475 152.953 134.629 155.452C131.77 157.309 130.123 160.613 128.722 163.808C117.917 188.452 114.765 213.393 118.305 238.713H163.375Z" fill="#383138"/>
<path d="M14.6416 238.714H52.3493C53.367 233.429 54.4212 228.283 55.2665 223.516C59.4103 200.157 67.4597 177.149 65.9635 153.373C65.8158 151.026 65.5269 148.548 64.245 146.71C62.8347 144.687 60.4859 143.845 58.2383 143.597C48.4744 142.524 39.8919 150.432 32.5254 157.859C27.9988 162.423 23.4716 166.987 18.9451 171.55C8.54162 182.038 -7.05197 194.98 -1.96171 209.753C1.80874 220.697 7.65376 230.183 14.6416 238.714Z" fill="#383138"/>
<path d="M115.45 137.288C105.969 131.883 100.454 119.8 102.411 108.715H83.4585C83.7054 116.431 79.2867 121.914 75.2135 128.36C73.0903 131.72 70.5591 135.21 66.8506 136.317C72.2071 143.802 81.4791 147.544 90.429 147.781C99.3789 148.018 109.736 144.479 115.45 137.288Z" fill="#F3725F"/>
<path d="M115.45 137.288C105.969 131.883 100.454 119.8 102.411 108.715H83.4585C83.7054 116.431 79.2867 121.914 75.2135 128.36C73.0903 131.72 70.5591 135.21 66.8506 136.317C72.2071 143.802 81.4791 147.544 90.429 147.781C99.3789 148.018 109.736 144.479 115.45 137.288Z" fill="#F3725F"/>
<path d="M79.7178 121.275C86.7209 126.997 97.575 116.189 99.338 108.716H83.4576C83.6107 113.509 81.9641 117.439 79.7178 121.275Z" fill="#362F36"/>
<path d="M102.411 108.716H102.098C102.095 108.777 102.088 108.84 102.077 108.904C100.333 118.574 87.02 130.127 78.3024 123.583C77.3053 125.148 76.2484 126.723 75.2135 128.361C73.0903 131.721 70.5591 135.211 66.8506 136.318C72.2071 143.803 81.4791 147.545 90.429 147.782C99.3789 148.019 109.736 144.48 115.45 137.289C105.968 131.884 100.454 119.8 102.411 108.716Z" fill="#362F36"/>
<path d="M104.748 125.354C102.146 126.837 99.345 127.95 96.4058 128.569C89.6163 129.997 83.0805 128.293 77.9982 124.057C77.0917 125.466 76.1439 126.888 75.2134 128.36C73.0903 131.719 70.5591 135.21 66.8506 136.317C67.799 144.532 84.8589 176.353 93.8088 176.59C102.759 176.827 109.736 144.479 115.45 137.287C110.779 134.625 107.075 130.341 104.748 125.354Z" fill="#383138"/>
<path d="M109.599 82.0955C109.549 86.7765 113.069 90.6155 117.463 90.6694C121.857 90.7233 125.46 86.9722 125.51 82.2912C125.561 77.6103 122.04 73.7719 117.647 73.7174C113.252 73.6635 109.65 77.4146 109.599 82.0955Z" fill="#F3725F"/>
<path d="M112.553 95.5041C112.54 95.743 112.522 95.982 112.5 96.2209C112.49 96.3414 112.478 96.4638 112.466 96.5843C112.457 96.6595 112.451 96.7347 112.441 96.8099C112.415 97.0396 112.387 97.2652 112.353 97.4921C112.343 97.5607 112.333 97.6272 112.323 97.6958C112.272 98.0253 112.214 98.3547 112.149 98.6795C112.08 99.0256 112.005 99.3684 111.92 99.7091C111.891 99.8303 111.86 99.9494 111.829 100.069C111.811 100.141 111.79 100.213 111.77 100.286C111.692 100.574 111.607 100.859 111.516 101.143C111.3 101.83 111.051 102.501 110.772 103.157C110.706 103.315 110.636 103.473 110.566 103.629C109.93 105.034 109.161 106.357 108.273 107.58C108.08 107.844 107.882 108.104 107.681 108.357C107.572 108.495 107.461 108.628 107.35 108.764C107.163 108.985 106.974 109.202 106.779 109.416C106.304 109.942 105.805 110.439 105.285 110.911C105.041 111.131 104.793 111.345 104.542 111.553C103.511 112.404 102.407 113.152 101.239 113.783C100.359 114.262 99.4427 114.672 98.4962 115.014C98.2893 115.089 98.0803 115.16 97.8713 115.226C97.7222 115.275 97.5738 115.321 97.4227 115.364C97.3422 115.389 97.2596 115.414 97.1771 115.437C97.1006 115.458 97.0247 115.478 96.9481 115.498C96.7045 115.564 96.4616 115.626 96.2153 115.682C94.7558 116.014 93.2443 116.178 91.6948 116.16C91.354 116.155 91.0179 116.142 90.6825 116.121C86.9054 115.876 83.3965 114.541 80.4334 112.41C74.8506 108.397 71.1907 101.565 71.2739 93.8941L71.3304 88.6887L71.4975 73.3793L71.5487 68.5912L71.6206 61.9834C71.6253 61.6207 71.6373 61.2579 71.6579 60.9005C71.6679 60.7235 71.6798 60.5451 71.6945 60.3687C71.7045 60.227 71.7165 60.0892 71.7324 59.9494C71.7444 59.8097 71.7604 59.6679 71.7784 59.5288C71.7804 59.4942 71.7843 59.4602 71.7903 59.4276C71.7996 59.3418 71.8103 59.2559 71.8236 59.1701C71.8356 59.0669 71.8496 58.9664 71.8655 58.8639C71.8729 58.8013 71.8828 58.7394 71.8922 58.6775C71.9148 58.5278 71.9394 58.378 71.9667 58.2283C71.988 58.1025 72.0113 57.976 72.0366 57.8502C72.0492 57.7757 72.0632 57.7025 72.0799 57.6279C72.1371 57.3357 72.2023 57.0476 72.2735 56.76C72.3108 56.5983 72.3527 56.4346 72.3967 56.2748C72.4353 56.1258 72.4765 55.9793 72.5191 55.8309C72.5597 55.6865 72.6043 55.542 72.6476 55.3983C72.6496 55.3943 72.6502 55.3896 72.6522 55.3856C72.6968 55.2412 72.7434 55.0994 72.79 54.9557C72.8386 54.8119 72.8879 54.6682 72.9384 54.5244C72.989 54.3826 73.0416 54.2389 73.0948 54.0978C73.2033 53.8102 73.3185 53.526 73.4376 53.2445C73.4609 53.1906 73.4849 53.138 73.5082 53.0841C73.6087 52.8525 73.7118 52.6222 73.8196 52.3952C73.8449 52.3427 73.8702 52.2901 73.8962 52.2375C74.0093 52.0032 74.1265 51.7709 74.2469 51.5413C74.2663 51.5047 74.2849 51.4688 74.3042 51.4322C77.9022 44.6813 84.7509 40.1348 92.5181 40.23C101.254 40.3378 108.707 46.286 111.623 54.531C112.5 57.0096 112.968 59.6952 112.937 62.4932L112.592 94.4046C112.586 94.7713 112.574 95.138 112.553 95.5041Z" fill="#F3725F"/>
<path d="M60.0376 80.8934C59.9871 85.5743 63.5079 89.4133 67.9013 89.4672C72.2954 89.5212 75.8981 85.77 75.9487 81.0891C75.9993 76.4081 72.4784 72.5698 68.085 72.5152C63.6916 72.4613 60.0882 76.2125 60.0376 80.8934Z" fill="#F3725F"/>
<path d="M69.6447 86.8869C69.5229 86.8869 69.4011 86.839 69.3106 86.7445L62.7607 79.9117C62.5837 79.7274 62.5897 79.4339 62.7747 79.2568C62.9591 79.0798 63.2526 79.0858 63.4296 79.2708L69.9795 86.1035C70.1565 86.2879 70.1505 86.5814 69.9655 86.7584C69.8756 86.8443 69.7598 86.8869 69.6447 86.8869Z" fill="#472A1C"/>
<path d="M120.735 84.9946C120.613 84.9946 120.491 84.9466 120.4 84.8521L113.851 78.0194C113.674 77.835 113.68 77.5415 113.865 77.3645C114.049 77.1874 114.342 77.1928 114.519 77.3785L121.069 84.2112C121.246 84.3955 121.24 84.6891 121.055 84.8661C120.965 84.952 120.85 84.9946 120.735 84.9946Z" fill="#472A1C"/>
<path d="M93.3328 92.2849C93.2456 92.2849 93.1578 92.2596 93.0799 92.207C92.8736 92.0672 92.819 91.7864 92.9588 91.58L95.1818 88.2941H92.6573C92.417 88.2941 92.2187 88.1058 92.206 87.8655L91.9811 83.4055C91.9684 83.1566 92.1601 82.9443 92.409 82.9317C92.6559 82.915 92.8703 83.1107 92.8829 83.3596L93.0866 87.391H96.0324C96.1994 87.391 96.3532 87.4835 96.4311 87.6306C96.5096 87.7783 96.4996 87.9574 96.4064 88.0958L93.7062 92.0859C93.6197 92.215 93.4773 92.2849 93.3328 92.2849Z" fill="#472A1C"/>
<path d="M75.2496 81.8901C75.2889 83.0768 77.3362 84.0199 80.1868 84.3188C81.0221 84.4066 81.9286 84.4392 82.875 84.4066C83.9865 84.368 85.0401 84.2422 85.9859 84.0472C88.5763 83.5181 90.3553 82.4845 90.3187 81.361C90.2848 80.314 88.6868 79.4588 86.3539 79.0668C85.2664 78.8831 84.0178 78.8012 82.694 78.8478C81.5013 78.8891 80.3765 79.0315 79.3808 79.2478C76.9002 79.7876 75.213 80.7959 75.2496 81.8901Z" fill="white"/>
<path d="M78.7285 81.3477C78.7285 82.537 79.2936 83.6033 80.1868 84.3188C81.0221 84.4066 81.9286 84.4392 82.875 84.4066C83.9865 84.368 85.0401 84.2422 85.9859 84.0472C86.7007 83.3457 87.1366 82.3946 87.1366 81.347C87.1366 80.4971 86.8478 79.7077 86.3539 79.0668C85.2664 78.8831 84.0178 78.8012 82.694 78.8478C81.5013 78.8891 80.3765 79.0315 79.3808 79.2478C78.9681 79.8568 78.7285 80.5776 78.7285 81.3477Z" fill="#362F36"/>
<path d="M95.0153 81.1004C95.0545 82.2871 97.1011 83.2302 99.9524 83.529C100.788 83.6169 101.694 83.6495 102.641 83.6169C103.752 83.5783 104.806 83.4525 105.752 83.2582C108.342 82.729 110.121 81.6954 110.084 80.5719C110.05 79.525 108.452 78.6697 106.12 78.2777C105.032 78.094 103.783 78.0121 102.46 78.0587C101.267 78.1 100.142 78.2424 99.1464 78.4587C96.6652 78.9979 94.978 80.0068 95.0153 81.1004Z" fill="white"/>
<path d="M98.4932 80.5576C98.4932 81.747 99.0582 82.8132 99.9514 83.5287C100.787 83.6166 101.693 83.6492 102.64 83.6166C103.751 83.578 104.805 83.4522 105.751 83.2578C106.465 82.5563 106.901 81.6046 106.901 80.5576C106.901 79.7077 106.612 78.9183 106.119 78.2767C105.031 78.093 103.782 78.0112 102.459 78.0578C101.266 78.099 100.141 78.2415 99.1454 78.4578C98.7328 79.0661 98.4932 79.7869 98.4932 80.5576Z" fill="#362F36"/>
<path d="M94.8461 96.3746C91.6887 96.3746 88.5452 94.8291 86.7342 92.1974C86.5924 91.9918 86.6444 91.7109 86.85 91.5692C87.0563 91.4274 87.3372 91.4793 87.4783 91.685C89.5635 94.716 93.7879 96.1869 97.3061 95.108C97.545 95.0348 97.7973 95.1692 97.8705 95.4075C97.9437 95.6458 97.8099 95.8987 97.571 95.9719C96.6831 96.2441 95.764 96.3746 94.8461 96.3746Z" fill="#472A1C"/>
<path d="M77.0245 65.1481C78.4222 61.7683 79.0066 58.089 79.0425 54.4324C79.0718 51.4666 78.6252 48.234 76.5014 46.1641C73.0743 48.5887 70.7242 52.3638 69.6154 56.4131C68.7036 59.7423 68.1239 76.0913 70.6231 79.0038C73.7612 82.6618 76.0647 67.4696 77.0245 65.1481Z" fill="#472A1C"/>
<path d="M70.45 51.9903C69.3651 56.6426 71.5774 61.7369 75.4065 64.5935C79.2355 67.4501 84.4136 68.1803 89.0619 67.0794C92.8823 66.1749 96.3299 64.1536 99.703 62.1442C103.076 60.1349 106.5 58.0849 110.304 57.1119C114.108 56.1388 118.418 56.3831 121.595 58.6892C121.317 53.6063 120.953 48.0049 117.308 44.4521C115.38 42.5725 112.921 41.3366 110.429 40.3156C104.679 37.9601 98.525 36.599 92.3192 36.3095C89.2383 36.1664 86.0935 36.2942 83.175 37.2919C80.6172 38.1658 78.3236 39.6773 76.1878 41.3346C74.3609 42.7522 72.5964 44.323 71.4044 46.3044C70.2124 48.2858 69.7505 49.7853 70.45 51.9903Z" fill="#472A1C"/>
<path d="M94.5023 63.5471C96.7545 62.0676 99.1293 60.5441 101.813 60.3085C104.497 60.0729 107.543 61.6117 108.02 64.264C108.491 66.8883 106.399 69.2857 106.088 71.934C105.804 74.3533 107.115 76.7953 109.088 78.2249C111.06 79.6546 113.593 80.1591 116.025 80.0113C121.809 79.6599 127.178 75.5141 128.982 70.0078C125.837 67.4201 123.464 63.4014 122.149 59.5464C120.7 55.2988 120.573 50.7037 119.298 46.4008C118.852 44.8973 118.247 43.4017 117.206 42.2283C116.271 41.1741 115.028 40.4326 113.729 39.8842C109.925 38.2769 105.579 38.2429 101.571 39.2379C99.2045 39.8256 96.869 40.796 95.1086 42.4839C92.7305 44.7642 91.6496 48.1372 91.4979 51.4285C91.3461 54.7197 93.8247 60.3231 94.5023 63.5471Z" fill="#472A1C"/>
<path d="M66.6906 111.112C64.4736 111.112 63.3135 105.001 63.3135 98.9644C63.3135 92.9277 64.4736 86.8164 66.6906 86.8164C68.9076 86.8164 70.0677 92.9277 70.0677 98.9644C70.0677 105.001 68.9076 111.112 66.6906 111.112ZM66.6906 87.7242C65.6836 87.7242 64.2206 92.103 64.2206 98.965C64.2206 105.827 65.6836 110.206 66.6906 110.206C67.6976 110.206 69.1605 105.827 69.1605 98.965C69.1605 92.103 67.6976 87.7242 66.6906 87.7242Z" fill="white"/>
<path d="M117.701 110.91C115.484 110.91 114.324 104.799 114.324 98.7622C114.324 92.7255 115.484 86.6143 117.701 86.6143C119.918 86.6143 121.078 92.7255 121.078 98.7622C121.078 104.8 119.918 110.91 117.701 110.91ZM117.701 87.5221C116.694 87.5221 115.231 91.9009 115.231 98.7629C115.231 105.625 116.694 110.004 117.701 110.004C118.708 110.004 120.171 105.625 120.171 98.7629C120.171 91.9009 118.708 87.5221 117.701 87.5221Z" fill="white"/>
<path d="M90.3984 63.9542C87.2156 63.9542 83.9397 63.282 80.6884 61.9435C77.6813 60.655 75.2154 57.9334 73.9182 54.4745C72.5551 50.8398 72.6423 46.9482 74.1578 43.7968C74.2304 43.6464 74.4107 43.5831 74.5618 43.655C74.7123 43.7276 74.7755 43.9079 74.7029 44.059C73.2586 47.0621 73.1794 50.7806 74.4846 54.2622C75.7239 57.5667 78.0707 60.1631 80.9227 61.3857C86.4269 63.652 92.0017 63.9635 97.0394 62.2843C102.369 60.5079 106.166 56.167 109.903 51.4947C109.91 51.4861 109.917 51.4774 109.926 51.4695C110.594 50.8019 111.246 50.1124 111.877 49.4455C114.475 46.6993 116.929 44.1056 120.612 42.632C122.344 41.9398 123.988 42.7245 124.87 43.6064C124.884 43.6204 124.897 43.6357 124.908 43.6523C126.042 45.3535 126.024 47.7795 124.857 50.308C124.788 50.4598 124.608 50.5257 124.456 50.4558C124.304 50.3859 124.238 50.2062 124.308 50.0544C125.379 47.7343 125.42 45.5346 124.422 44.0131C123.665 43.2697 122.281 42.6167 120.837 43.1938C117.277 44.6181 114.867 47.1646 112.316 49.8608C111.686 50.527 111.034 51.2159 110.365 51.8854C106.723 56.4373 102.707 61.0323 97.2304 62.858C95.0354 63.5894 92.7425 63.9542 90.3984 63.9542Z" fill="#9B5C43"/>
</g>
<mask id="mask2_1751_12473" style="mask-type:luminance" maskUnits="userSpaceOnUse" x="4" y="0" width="170" height="171">
<path d="M89.1962 170.736C135.907 170.736 173.773 132.515 173.773 85.3678C173.773 38.2204 135.907 0 89.1962 0C42.4856 0 4.61914 38.2204 4.61914 85.3678C4.61914 132.515 42.4856 170.736 89.1962 170.736Z" fill="white"/>
</mask>
<g mask="url(#mask2_1751_12473)">
<path d="M143.49 121.849C143.03 121.849 142.636 121.501 142.588 121.033C142.09 116.126 140.252 111.455 137.274 107.524C136.938 107.081 136.575 106.63 136.225 106.194C134.786 104.404 133.299 102.554 132.743 100.218C131.763 96.1101 134.103 92.0202 135.947 89.3014C136.185 88.9493 136.429 88.5972 136.673 88.2438C138.459 85.6574 140.306 82.9825 140.613 79.9954C140.898 77.2166 139.786 74.1457 137.562 71.5706C135.401 69.0681 132.474 67.2564 129.895 65.8148L129.769 65.7449C128.605 65.0953 127.403 64.4231 126.534 63.289C125.262 61.6284 124.987 59.1365 125.818 56.7864C126.507 54.8369 127.785 53.197 129.144 51.5497C129.463 51.163 130.036 51.1084 130.422 51.4272C130.808 51.746 130.863 52.3184 130.544 52.7044C129.244 54.2792 128.12 55.7195 127.529 57.3914C127.037 58.7851 126.895 60.7758 127.974 62.1855C128.615 63.0221 129.605 63.5752 130.653 64.1609L130.78 64.2314C133.496 65.7509 136.589 67.6697 138.934 70.3853C141.484 73.3377 142.753 76.9085 142.417 80.1817C142.062 83.6321 140.082 86.5006 138.166 89.2754C137.925 89.6248 137.684 89.9729 137.448 90.321C135.656 92.962 133.703 96.4249 134.507 99.798C134.969 101.736 136.265 103.35 137.639 105.057C137.998 105.503 138.369 105.965 138.72 106.428C141.899 110.625 143.861 115.612 144.394 120.85C144.445 121.348 144.082 121.794 143.583 121.844C143.551 121.848 143.521 121.849 143.49 121.849Z" fill="#472A1C"/>
</g>
<mask id="mask3_1751_12473" style="mask-type:luminance" maskUnits="userSpaceOnUse" x="4" y="0" width="170" height="171">
<path d="M89.1962 170.736C135.907 170.736 173.773 132.515 173.773 85.3678C173.773 38.2204 135.907 0 89.1962 0C42.4856 0 4.61914 38.2204 4.61914 85.3678C4.61914 132.515 42.4856 170.736 89.1962 170.736Z" fill="white"/>
</mask>
<g mask="url(#mask3_1751_12473)">
<path d="M36.5491 116.071C36.0992 116.071 35.7085 115.737 35.65 115.279C34.9664 109.915 37.0443 104.341 41.073 100.733C41.2055 100.615 41.3406 100.497 41.4763 100.379C42.1193 99.8209 42.7263 99.2931 43.0198 98.6435C43.2601 98.1124 43.322 97.4342 43.2155 96.5097C42.9413 94.127 41.8943 91.902 40.7861 89.5465C39.3998 86.5994 37.9661 83.5518 38.1991 80.178C38.5791 74.6658 43.2987 70.685 47.5883 68.7974C48.968 68.1905 50.4069 67.7073 51.7986 67.24C53.9897 66.5046 56.0596 65.8097 57.9305 64.6703C60.8024 62.9212 63.1858 59.5055 62.1848 56.3613C62.0324 55.8841 62.2966 55.3736 62.7739 55.2219C63.2504 55.0695 63.7616 55.3337 63.9133 55.8109C64.521 57.7191 64.2581 59.7943 63.1526 61.8116C62.1961 63.5568 60.6766 65.1229 58.8743 66.2204C56.8297 67.4657 54.5654 68.2257 52.3757 68.9605C51.0226 69.4151 49.6236 69.8843 48.3191 70.4587C44.5147 72.1326 40.3342 75.5982 40.0094 80.3031C39.8091 83.2063 41.0817 85.9105 42.4288 88.7745C43.5503 91.1592 44.7103 93.6245 45.0192 96.3027C45.1649 97.5673 45.0551 98.5483 44.6744 99.3909C44.2172 100.403 43.3938 101.119 42.667 101.75C42.5386 101.862 42.4101 101.973 42.2843 102.086C38.6936 105.301 36.842 110.269 37.451 115.05C37.5142 115.547 37.1628 116.001 36.6656 116.064C36.6257 116.069 36.5871 116.071 36.5491 116.071Z" fill="#472A1C"/>
</g>
<path d="M87.8327 74.4312C87.7182 74.4312 87.6024 74.4093 87.4906 74.364C85.3055 73.4728 83.4998 73.0575 81.8119 73.0575C81.8046 73.0575 81.798 73.0575 81.7906 73.0575C80.6226 73.0602 79.4751 73.2652 78.3783 73.6678C77.9077 73.8409 77.3866 73.5993 77.2142 73.1287C77.0411 72.6582 77.2827 72.137 77.7533 71.9646C79.0498 71.4888 80.4069 71.2458 81.7873 71.2432C81.7953 71.2432 81.8039 71.2432 81.8126 71.2432C83.7434 71.2432 85.7661 71.7011 88.1761 72.6841C88.64 72.8731 88.863 73.4029 88.6733 73.8668C88.5295 74.2176 88.1901 74.4306 87.8327 74.4312Z" fill="#472A1C"/>
<path d="M95.8728 74.3195C95.6139 74.3195 95.357 74.2097 95.1773 73.9954C94.8551 73.6113 94.9051 73.0396 95.2884 72.7168C97.0036 71.2765 99.3377 70.378 101.86 70.1877C103.957 70.0286 106.19 70.3188 108.69 71.0749C109.17 71.2199 109.441 71.7265 109.296 72.2057C109.151 72.6855 108.644 72.9564 108.165 72.8113C105.884 72.1218 103.866 71.8556 101.997 71.9967C99.8496 72.1591 97.8808 72.9085 96.4545 74.1065C96.2861 74.2496 96.0791 74.3195 95.8728 74.3195Z" fill="#472A1C"/>
<path d="M93.6008 159.444C93.3725 159.444 93.1448 159.437 92.9179 159.424C91.445 159.342 89.8716 158.997 88.1065 158.371C77.729 154.691 70.1382 144.028 70.0576 133.017L70.5981 133.013C70.6766 143.804 78.1163 154.255 88.2869 157.862C90.0027 158.471 91.5268 158.805 92.9478 158.885C97.9928 159.167 103.255 156.145 106.349 151.183C108.876 147.132 110.111 141.847 110.02 135.476L110.561 135.468C110.653 141.944 109.391 147.328 106.808 151.469C103.75 156.373 98.6278 159.444 93.6008 159.444Z" fill="#F5F5F3"/>
<path d="M263.064 48.0079H154.056C150.891 48.0079 148.324 45.4414 148.324 42.276V24.7123C148.324 20.3695 151.845 16.8486 156.188 16.8486H261.51C266.023 16.8486 269.681 20.5066 269.681 25.0191V41.3915C269.681 45.0461 266.719 48.0079 263.064 48.0079Z" fill="#A595FA"/>
<path d="M163.083 42.2686L145.863 61.9481L183.582 46.3685L163.083 42.2686Z" fill="#A595FA"/>
<path d="M257.379 28.3294H159.802C159.349 28.3294 158.982 27.962 158.982 27.5094C158.982 27.0562 159.35 26.6895 159.802 26.6895H257.379C257.832 26.6895 258.199 27.0568 258.199 27.5094C258.199 27.962 257.833 28.3294 257.379 28.3294Z" fill="#FFF8F3"/>
<path d="M204.082 38.1683H158.983C158.53 38.1683 158.163 37.8009 158.163 37.3483C158.163 36.895 158.53 36.5283 158.983 36.5283H204.082C204.535 36.5283 204.902 36.8957 204.902 37.3483C204.902 37.8009 204.535 38.1683 204.082 38.1683Z" fill="#FFF8F3"/>
<path d="M38.4091 225.251C23.1862 225.251 10.7314 212.796 10.7314 197.573C10.7314 182.35 23.1862 169.896 38.4091 169.896C53.632 169.896 66.0867 182.35 66.0867 197.573C66.0867 212.796 53.632 225.251 38.4091 225.251Z" fill="#A595FA"/>
<path d="M32.431 208.967L32.2373 198.822L32.043 188.678L40.9256 193.582L49.8083 198.486L41.12 203.727L32.431 208.967Z" fill="#FFF8F3"/>
<path d="M388.674 190.057C400.17 189.246 389.5 175.227 395.806 170.669C402.038 166.164 414.871 166.368 410.068 154.987C408.517 151.311 405.346 149.783 405.993 145.464C406.768 140.284 412.714 137.237 414.882 132.708C419.459 123.147 408.968 115.689 400.527 120.748C397.377 122.636 394.21 126.776 393.419 130.426C392.595 134.23 395.207 137.748 392.437 141.308C388.092 146.891 378.554 141.259 373.461 147.253C367.628 154.12 378.845 160.226 375.274 166.897C373.128 170.904 365.423 171.461 361.689 173.445C357.237 175.812 353.58 179.632 351.479 184.148C345.49 197.017 355.036 213.507 370.118 212.775C376.008 212.488 381.369 209.501 384.951 204.892C388.817 199.914 388.208 194.089 388.674 190.057Z" fill="#A595FA"/>
<path d="M406.524 127.569C406.526 127.456 406.464 127.347 406.356 127.295C406.209 127.225 406.033 127.287 405.963 127.434L385.114 171.233L379.645 182.722C379.575 182.87 379.638 183.045 379.784 183.115C379.931 183.184 380.107 183.123 380.177 182.975L406.495 127.689C406.514 127.649 406.523 127.609 406.524 127.569Z" fill="#503C6F"/>
<path d="M404.263 156.577C404.264 156.546 404.26 156.513 404.25 156.482C404.202 156.327 404.036 156.24 403.881 156.289L390.308 160.541C390.152 160.589 390.066 160.755 390.114 160.91C390.163 161.065 390.328 161.152 390.483 161.103L404.056 156.851C404.18 156.812 404.26 156.7 404.263 156.577Z" fill="#503C6F"/>
<path d="M402.45 136.049C402.45 136.014 402.445 135.979 402.433 135.943L399.375 127.33C399.321 127.177 399.152 127.097 398.999 127.151C398.846 127.205 398.766 127.374 398.82 127.527L401.877 136.14C401.932 136.294 402.1 136.374 402.254 136.319C402.372 136.278 402.447 136.168 402.45 136.049Z" fill="#503C6F"/>
<path d="M386.711 169.168C386.712 169.135 386.707 169.102 386.696 169.069L382.181 156.348C382.129 156.204 381.972 156.129 381.828 156.18C381.684 156.231 381.61 156.389 381.66 156.533L386.175 169.253C386.227 169.397 386.384 169.472 386.528 169.421C386.639 169.381 386.708 169.279 386.711 169.168Z" fill="#503C6F"/>
<path d="M349.264 248.67C349.1 248.67 348.965 248.538 348.962 248.373C348.961 248.278 348.841 238.773 351.49 226.88C353.937 215.891 359.314 200.552 371.038 189.875C371.162 189.762 371.353 189.771 371.466 189.895C371.578 190.018 371.569 190.21 371.446 190.322C359.839 200.893 354.508 216.108 352.08 227.011C349.447 238.836 349.566 248.269 349.567 248.363C349.57 248.53 349.437 248.667 349.27 248.67C349.268 248.67 349.266 248.67 349.264 248.67Z" fill="#503C6F"/>
<path d="M374.333 188.473C374.242 188.473 374.151 188.432 374.092 188.354C373.991 188.221 374.017 188.031 374.15 187.93C375.495 186.907 376.707 185.714 377.753 184.384C377.856 184.253 378.046 184.23 378.177 184.334C378.308 184.437 378.331 184.627 378.228 184.758C377.151 186.128 375.902 187.357 374.516 188.411C374.461 188.453 374.397 188.473 374.333 188.473Z" fill="#503C6F"/>
<path d="M365.41 196.249C365.244 196.249 365.109 196.115 365.108 195.948C365.049 188.047 365.061 180.04 365.145 172.15C365.147 171.983 365.27 171.844 365.451 171.851C365.618 171.853 365.752 171.989 365.75 172.156C365.666 180.043 365.654 188.046 365.713 195.944C365.714 196.111 365.58 196.247 365.413 196.249C365.411 196.249 365.41 196.249 365.41 196.249Z" fill="#503C6F"/>
<path d="M362.571 200.482C362.477 200.482 362.384 200.438 362.325 200.356C362.228 200.22 362.259 200.031 362.395 199.934C373.045 192.324 383.364 186.148 393.941 181.053C394.091 180.981 394.272 181.044 394.345 181.195C394.417 181.346 394.354 181.526 394.203 181.599C383.658 186.678 373.368 192.837 362.746 200.426C362.694 200.464 362.633 200.482 362.571 200.482Z" fill="#503C6F"/>
<path d="M87.7581 244.336L73.7871 196.435C72.3069 191.36 76.0501 186.268 81.2601 186.268H157.251C160.403 186.268 163.246 188.198 164.452 191.157L181.216 232.294C183.357 237.548 179.512 243.314 173.915 243.24C147.41 242.887 85.7381 242.283 87.7581 244.336Z" fill="#503C6F"/>
<path d="M92.7433 241.16C92.6249 241.16 92.5077 241.113 92.4199 241.024C92.3081 240.911 92.2488 240.769 92.2475 240.626L80.0836 198.919C79.4187 196.639 79.8513 194.245 81.2709 192.352C82.658 190.503 84.7672 189.442 87.0581 189.442H153.55C156.504 189.442 159.142 191.233 160.271 194.003L174.94 229.998C175.888 232.326 175.611 234.952 174.198 237.023C172.819 239.045 170.562 240.226 168.125 240.201C104.204 239.35 94.5104 240.384 93.1819 240.822C93.152 240.935 93.0788 241.035 92.973 241.097C92.9011 241.14 92.8219 241.16 92.7433 241.16ZM87.0581 190.351C85.0554 190.351 83.2104 191.279 81.9964 192.898C80.7498 194.56 80.3698 196.663 80.9541 198.666L92.9956 239.952C94.6469 239.498 100.467 239.037 122.183 238.981C137.718 238.939 155.747 239.13 168.136 239.295C170.277 239.317 172.223 238.309 173.448 236.513C174.689 234.694 174.932 232.387 174.098 230.342L159.43 194.346C158.441 191.919 156.132 190.35 153.548 190.35L87.0581 190.351Z" fill="#A595FA"/>
<path d="M211.4 248.787H92.9532C90.096 248.787 87.7578 246.449 87.7578 243.592V243.483C87.7578 240.625 90.096 238.287 92.9532 238.287H211.4C214.258 238.287 216.596 240.625 216.596 243.483V243.592C216.596 246.449 214.258 248.787 211.4 248.787Z" fill="#A595FA"/>
<path d="M334.546 44.122C334.546 46.4602 332.65 48.3564 330.312 48.3564C327.973 48.3564 326.077 46.4608 326.077 44.122C326.077 41.7839 327.973 39.8877 330.312 39.8877C332.65 39.8877 334.546 41.7832 334.546 44.122Z" fill="#A595FA"/>
<path d="M348.458 44.122C348.458 46.4602 346.562 48.3564 344.224 48.3564C341.885 48.3564 339.989 46.4608 339.989 44.122C339.989 41.7839 341.885 39.8877 344.224 39.8877C346.562 39.8877 348.458 41.7832 348.458 44.122Z" fill="#A595FA"/>
<path d="M362.371 44.123C362.371 46.4612 360.475 48.3574 358.137 48.3574C355.799 48.3574 353.902 46.4618 353.902 44.123C353.902 41.7849 355.798 39.8887 358.137 39.8887C360.475 39.8887 362.371 41.7842 362.371 44.123Z" fill="#A595FA"/>
<g opacity="0.38">
<path d="M223.587 199.575H166.661C160.834 199.575 156.109 194.851 156.109 189.024V101.249C156.109 95.4215 160.834 90.6973 166.661 90.6973H223.587C229.414 90.6973 234.138 95.4215 234.138 101.249V189.023C234.138 194.851 229.414 199.575 223.587 199.575Z" fill="#FFF8F3"/>
</g>
<path d="M178.675 148.025C171.077 153.323 163.568 158.8 156.109 164.37V188.237C156.109 194.499 160.505 199.576 165.928 199.576H224.319C229.742 199.576 234.138 194.499 234.138 188.237V110.845C215.734 123.403 196.976 135.262 178.675 148.025Z" fill="#FFF8F3"/>
<path d="M200.212 112.207C211.823 111.246 220.457 101.054 219.496 89.4427C218.534 77.8314 208.342 69.1978 196.731 70.159C185.12 71.1202 176.486 81.3122 177.447 92.9235C178.409 104.535 188.601 113.168 200.212 112.207Z" fill="#A595FA"/>
<path d="M202.143 91.6998C204.399 89.4445 204.399 85.7879 202.143 83.5326C199.888 81.2773 196.231 81.2773 193.976 83.5326C191.721 85.7879 191.721 89.4445 193.976 91.6998C196.231 93.9551 199.888 93.9551 202.143 91.6998Z" fill="#FFF8F3"/>
<path d="M210.261 100.375C208.292 95.4942 203.514 92.0479 197.928 92.0479C192.342 92.0479 187.563 95.4942 185.595 100.375H210.261Z" fill="#FFF8F3"/>
<path d="M209.035 122.756H164.879C164.047 122.756 163.367 122.076 163.367 121.244C163.367 120.412 164.047 119.731 164.879 119.731H209.035C209.867 119.731 210.547 120.412 210.547 121.244C210.547 122.076 209.867 122.756 209.035 122.756Z" fill="#A595FA"/>
<path d="M224.46 128.048H163.368C163.118 128.048 162.914 127.845 162.914 127.595C162.914 127.344 163.117 127.141 163.368 127.141H224.46C224.711 127.141 224.914 127.344 224.914 127.595C224.914 127.845 224.711 128.048 224.46 128.048Z" fill="#A595FA"/>
<path d="M224.46 132.283H163.368C163.118 132.283 162.914 132.08 162.914 131.829C162.914 131.579 163.117 131.375 163.368 131.375H224.46C224.711 131.375 224.914 131.578 224.914 131.829C224.914 132.08 224.711 132.283 224.46 132.283Z" fill="#A595FA"/>
<path d="M224.46 136.517H163.368C163.118 136.517 162.914 136.314 162.914 136.063C162.914 135.813 163.117 135.609 163.368 135.609H224.46C224.711 135.609 224.914 135.812 224.914 136.063C224.914 136.314 224.711 136.517 224.46 136.517Z" fill="#A595FA"/>
<path d="M209.035 147.858H164.879C164.047 147.858 163.367 147.178 163.367 146.346C163.367 145.514 164.047 144.834 164.879 144.834H209.035C209.867 144.834 210.547 145.514 210.547 146.346C210.547 147.177 209.867 147.858 209.035 147.858Z" fill="#A595FA"/>
<path d="M224.46 153.151H163.368C163.118 153.151 162.914 152.948 162.914 152.697C162.914 152.446 163.117 152.243 163.368 152.243H224.46C224.711 152.243 224.914 152.446 224.914 152.697C224.914 152.948 224.711 153.151 224.46 153.151Z" fill="#A595FA"/>
<path d="M224.46 157.385H163.368C163.118 157.385 162.914 157.182 162.914 156.931C162.914 156.681 163.117 156.478 163.368 156.478H224.46C224.711 156.478 224.914 156.681 224.914 156.931C224.914 157.182 224.711 157.385 224.46 157.385Z" fill="#A595FA"/>
<path d="M224.46 161.619H163.368C163.118 161.619 162.914 161.416 162.914 161.165C162.914 160.915 163.117 160.711 163.368 160.711H224.46C224.711 160.711 224.914 160.914 224.914 161.165C224.914 161.416 224.711 161.619 224.46 161.619Z" fill="#A595FA"/>
<path d="M209.337 170.541H165.181C164.349 170.541 163.669 169.861 163.669 169.029C163.669 168.197 164.349 167.517 165.181 167.517H209.337C210.169 167.517 210.849 168.197 210.849 169.029C210.849 169.86 210.169 170.541 209.337 170.541Z" fill="#A595FA"/>
<path d="M224.762 175.834H163.67C163.419 175.834 163.216 175.631 163.216 175.38C163.216 175.129 163.419 174.926 163.67 174.926H224.762C225.013 174.926 225.216 175.129 225.216 175.38C225.216 175.631 225.013 175.834 224.762 175.834Z" fill="#A595FA"/>
<path d="M224.762 180.068H163.67C163.419 180.068 163.216 179.865 163.216 179.614C163.216 179.364 163.419 179.16 163.67 179.16H224.762C225.013 179.16 225.216 179.363 225.216 179.614C225.216 179.864 225.013 180.068 224.762 180.068Z" fill="#A595FA"/>
<path d="M224.762 184.301H163.67C163.419 184.301 163.216 184.098 163.216 183.847C163.216 183.597 163.419 183.394 163.67 183.394H224.762C225.013 183.394 225.216 183.597 225.216 183.847C225.216 184.098 225.013 184.301 224.762 184.301Z" fill="#A595FA"/>
<path d="M131.005 226.189C125.183 226.189 120.42 221.425 120.42 215.604C120.42 209.782 125.183 205.019 131.005 205.019C136.827 205.019 141.59 209.782 141.59 215.604C141.59 221.425 136.827 226.189 131.005 226.189Z" fill="#A595FA"/>
<path d="M136.478 212.656L125.562 212.58C123.43 213.22 122.322 215.249 122.982 217.375H127.377V214.617H134.663V217.451H139.058C139.718 215.325 138.61 213.295 136.478 212.656Z" fill="#FFF8F3"/>
<path d="M114.774 217.722C113.61 217.722 112.657 216.769 112.657 215.604C112.657 214.44 113.61 213.487 114.774 213.487C115.938 213.487 116.892 214.44 116.892 215.604C116.892 216.769 115.939 217.722 114.774 217.722Z" fill="#A595FA"/>
<path d="M147.439 217.721C146.275 217.721 145.322 216.768 145.322 215.603C145.322 214.439 146.275 213.486 147.439 213.486C148.604 213.486 149.557 214.439 149.557 215.603C149.557 216.768 148.604 217.721 147.439 217.721Z" fill="#A595FA"/>
<path d="M154.79 217.249C153.884 217.249 153.146 216.511 153.146 215.605C153.146 214.698 153.884 213.961 154.79 213.961C155.697 213.961 156.434 214.698 156.434 215.605C156.434 216.511 155.697 217.249 154.79 217.249ZM154.79 214.728C154.307 214.728 153.913 215.121 153.913 215.605C153.913 216.088 154.307 216.482 154.79 216.482C155.274 216.482 155.668 216.089 155.668 215.605C155.667 215.122 155.274 214.728 154.79 214.728Z" fill="#A595FA"/>
<path d="M107.516 217.249C106.61 217.249 105.872 216.511 105.872 215.605C105.872 214.698 106.61 213.961 107.516 213.961C108.423 213.961 109.16 214.698 109.16 215.605C109.161 216.511 108.423 217.249 107.516 217.249ZM107.516 214.728C107.032 214.728 106.639 215.121 106.639 215.605C106.639 216.088 107.032 216.482 107.516 216.482C108 216.482 108.393 216.089 108.393 215.605C108.393 215.122 108 214.728 107.516 214.728Z" fill="#A595FA"/>
<path d="M300.113 68.1935C299.553 69.5626 299.372 71.0788 298.465 72.2934C296.855 74.4472 293.427 74.9577 290.582 74.3753C287.737 73.7923 285.22 72.3667 282.528 71.367C279.835 70.3673 276.654 69.8175 274.059 71.0022C271.853 72.0092 270.364 74.1437 267.961 74.6955C265.149 75.3417 262.35 73.5633 259.445 73.4908C256.113 73.4076 253.045 75.8183 252.379 78.7055C251.712 81.5921 253.251 84.6923 255.876 86.5093C258.499 88.3263 262.045 88.93 265.339 88.4821C270.69 87.7553 275.799 84.4667 281.049 85.6381C284.008 86.2983 286.335 88.2771 289.074 89.4671C292.181 90.8175 295.857 91.1117 299.187 90.2764C300.159 90.0328 301.119 89.6947 302.128 89.6781C304.212 89.6441 306.031 90.9706 308.098 91.2129C311.138 91.5696 313.835 89.5703 316.8 88.8741C323.066 87.4025 329.36 91.8745 335.818 91.3706C339.963 91.0472 343.67 88.6984 347.825 88.518C354.036 88.2491 359.513 92.8435 365.724 92.6046C369.228 92.4695 372.59 90.6571 374.331 87.9669C376.071 85.276 376.131 81.7951 374.485 79.0583C372.329 75.4729 367.726 73.5301 363.203 72.8139C361.425 72.5324 359.584 72.4046 357.823 72.758C355.918 73.1407 354.214 74.0619 352.386 74.6715C348.563 75.9467 344.01 75.7424 340.655 73.6812C338.754 72.5131 337.332 70.8438 335.618 69.4674C333.905 68.0917 331.664 66.9649 329.378 67.285C327.532 67.5433 325.349 68.6242 324.052 67.4361C323.411 66.8478 323.364 65.9493 323.12 65.1612C321.77 60.7931 315.82 61.874 312.101 62.3372C307.178 62.9509 302.089 63.3582 300.113 68.1935Z" fill="#383138"/>
<path d="M302.305 124.157L273.227 136.593L272.335 136.974C270.054 137.95 267.442 137.052 266.215 134.97L243.381 96.3289C242.927 95.5602 243.182 94.5685 243.951 94.1145C244.639 93.7079 245.506 93.8703 246.005 94.46L275.061 128.67L268.048 127.048L294.327 109.453C298.182 106.872 303.4 107.905 305.981 111.76C308.562 115.615 307.529 120.833 303.674 123.414C303.248 123.7 302.76 123.959 302.305 124.157Z" fill="#FF8772"/>
<path d="M236.468 196.116C234.478 198.68 230.611 199.838 227.301 198.859C225.057 198.196 223.211 196.709 221.156 195.631C217.146 193.528 212.213 193.035 207.89 194.305L229.25 213.908L242.652 201.452L236.468 196.116Z" fill="#AE4E3E"/>
<path d="M236.468 196.116C234.478 198.68 230.611 199.838 227.301 198.859C225.057 198.196 223.211 196.709 221.156 195.631C217.146 193.528 212.213 193.035 207.89 194.305L229.25 213.908L242.652 201.452L236.468 196.116Z" fill="#383138"/>
<path d="M236.466 196.116C234.477 198.68 230.61 199.837 227.299 198.859C225.056 198.196 223.209 196.709 221.155 195.631C220.8 195.445 220.435 195.276 220.066 195.115C220.971 197.584 221.414 200.25 221.588 202.846C221.678 204.195 221.698 205.563 221.649 206.934L223.915 209.014C227.705 207.164 231.987 207.103 236.176 207.468L242.649 201.451L236.466 196.116Z" fill="#FF8772"/>
<path d="M304.373 141.015C303.161 154.658 300.904 168.227 297.621 181.592H340.253C342.172 174.557 340.467 166.285 336.339 160.063C334.058 156.624 330.979 153.662 328.605 150.274C326.23 146.886 324.553 142.808 325.542 138.904L304.373 141.015Z" fill="#AE4E3E"/>
<path d="M336.339 160.064C334.057 156.625 330.979 153.662 328.604 150.274C328.463 150.073 328.324 149.868 328.188 149.662C325.795 149.687 323.402 149.693 321.009 149.673C319.975 149.664 318.941 149.65 317.907 149.631H303.467C302.163 160.369 300.211 171.044 297.621 181.592H340.253C342.171 174.557 340.466 166.285 336.339 160.064Z" fill="#383138"/>
<path d="M332.574 119.348C334.92 110.799 329.687 103.205 321.508 100.449C321.087 100.306 320.665 100.176 320.241 100.056C308.457 96.6991 293.887 102.115 292.105 115.665C291.42 120.874 293.083 125.839 294.412 130.798C296.076 137.009 294.985 143.66 298.297 149.437C301.726 155.418 307.517 156.552 313.882 156.327C321.319 156.064 326.533 153.697 327.775 146.03C328.364 142.398 327.798 138.669 328.115 135.024C328.596 129.483 331.119 124.648 332.574 119.348Z" fill="#FFC585"/>
<path d="M320.988 100.301C317.965 98.6487 316.206 94.9548 316.83 91.5664H310.786C310.864 93.9252 309.455 95.6011 308.156 97.5718C307.479 98.5988 306.672 99.6657 305.489 100.004C307.197 102.292 310.154 103.436 313.009 103.509C315.863 103.581 319.166 102.499 320.988 100.301Z" fill="#FF8772"/>
<path d="M307.9 97.9509C307.988 97.8244 308.073 97.6973 308.157 97.5708C309.456 95.6008 310.865 93.9242 310.787 91.5654H316.831C316.799 91.7378 316.778 91.9122 316.758 92.0859C315.29 95.3865 311.681 97.2847 307.9 97.9509Z" fill="#383138"/>
<path d="M313.246 92.3457C308.873 92.3457 305.296 88.7683 305.296 84.3948V72.8679C305.296 68.4951 308.873 64.917 313.246 64.917C317.619 64.917 321.197 68.4951 321.197 72.8679V84.3948C321.197 88.7676 317.619 92.3457 313.246 92.3457Z" fill="#FF8772"/>
<path d="M325.811 81.4522C325.811 83.1428 324.44 84.5138 322.749 84.5138C321.059 84.5138 319.688 83.1428 319.688 81.4522C319.688 79.761 321.059 78.3906 322.749 78.3906C324.44 78.3906 325.811 79.761 325.811 81.4522Z" fill="#FF8772"/>
<path d="M272.641 238.29C267.273 237.909 261.904 237.596 256.522 237.503L266.121 180.72C266.773 176.865 270.111 174.044 274.021 174.044H330.879C335.304 174.044 338.891 177.631 338.891 182.056C338.891 186.481 335.304 190.068 330.879 190.068H280.792L272.641 238.29Z" fill="#383138"/>
<path d="M232.793 192.054L276.163 160.439C278.293 158.886 281.075 158.386 283.657 159.09L334.79 173.046C339.277 174.271 341.867 178.71 340.574 182.962C339.282 187.214 334.596 189.669 330.11 188.444L283.084 175.609L243.679 204.334C239.956 200.326 236.517 196.067 232.793 192.054Z" fill="#383138"/>
<path d="M261.57 237.199C261.98 240.182 260.238 243.496 257.442 245.057C255.547 246.114 253.363 246.374 251.316 247.038C247.32 248.333 243.793 251.284 241.831 254.974L268.685 253.526L269.119 236.56L261.57 237.199Z" fill="#AE4E3E"/>
<path d="M261.57 237.199C261.98 240.182 260.238 243.496 257.442 245.057C255.547 246.114 253.363 246.374 251.316 247.038C247.32 248.333 243.793 251.284 241.831 254.974L268.685 253.526L269.119 236.56L261.57 237.199Z" fill="#383138"/>
<path d="M268.962 242.707L269.119 236.56L261.57 237.199C261.98 240.182 260.238 243.496 257.442 245.057C256.362 245.659 255.189 246.003 254.001 246.309C257.874 247.776 260.755 250.498 262.872 253.84L264.735 253.739C264.902 249.697 266.123 245.868 268.962 242.707Z" fill="#FF8772"/>
<path d="M247.861 251.824C247.789 251.824 247.718 251.795 247.664 251.738C247.562 251.63 247.567 251.459 247.676 251.356C249.317 249.816 251.818 248.768 255.323 248.152C255.469 248.127 255.61 248.225 255.636 248.372C255.662 248.518 255.563 248.659 255.416 248.685C252.018 249.281 249.608 250.284 248.046 251.75C247.994 251.799 247.927 251.824 247.861 251.824Z" fill="#F5F5F3"/>
<path d="M340.293 115.022L346.12 146.02L346.294 146.946C346.774 149.5 345.176 151.969 342.705 152.628L301.605 163.492C300.513 163.78 299.394 163.129 299.105 162.037C298.845 161.052 299.35 160.045 300.253 159.645L339.108 142.397L335.694 149.005L324.233 119.619C322.55 115.302 324.685 110.438 329.001 108.755C333.317 107.072 338.181 109.206 339.864 113.523C340.051 114.003 340.198 114.534 340.293 115.022Z" fill="#FF8772"/>
<path d="M291.317 159.729C291.25 160.657 295.906 161.267 295.906 161.267C295.906 161.267 288.007 166.008 288.566 167.087C288.589 167.13 288.624 167.164 288.663 167.192C288.978 167.178 289.293 167.17 289.607 167.169C291.472 166.635 295.096 164.268 295.096 164.268C295.096 164.268 293.912 165.149 292.664 166.229C293.768 166.019 294.894 165.988 296.025 166.077C296.181 165.935 296.27 165.852 296.27 165.852C296.27 165.852 296.186 165.935 296.043 166.079C297.687 166.211 299.339 166.595 300.945 167.041C303.045 165.035 306.062 161.915 306.062 161.915L301.376 159.057C301.375 159.057 291.43 158.163 291.317 159.729Z" fill="#FF8772"/>
<path d="M295.236 167.628C295.185 168.29 295.743 168.891 296.396 169.088C297.05 169.285 297.762 169.153 298.404 168.923C299.839 168.41 301.08 167.399 301.849 166.115C302.37 165.246 302.65 164.077 302.018 163.28C301.485 162.606 300.509 162.459 299.633 162.447C297.547 162.421 293.542 162.841 292.324 164.813C291.28 166.505 293.667 169.481 295.236 167.628Z" fill="#FF8772"/>
<path d="M248.847 87.865C247.988 87.7752 247.281 92.0628 247.281 92.0628C247.281 92.0628 243.121 84.6117 242.103 85.0969C242.062 85.1162 242.03 85.1475 242.003 85.1828C242.006 85.4743 242.004 85.7658 241.995 86.0567C242.435 87.7985 244.52 91.2222 244.52 91.2222C244.52 91.2222 243.738 90.1 242.774 88.9133C242.936 89.9409 242.931 90.9832 242.814 92.0262C242.941 92.1753 243.015 92.2598 243.015 92.2598C243.015 92.2598 242.941 92.1792 242.812 92.0428C242.639 93.559 242.233 95.0765 241.771 96.548C243.569 98.5507 246.372 101.437 246.372 101.437L249.043 99.2809C249.044 99.2828 250.297 88.0174 248.847 87.865Z" fill="#FF8772"/>
<path d="M241.401 91.2503C240.789 91.183 240.214 91.6809 240.011 92.2792C239.809 92.8776 239.91 93.5412 240.103 94.1415C240.537 95.4846 241.437 96.6633 242.604 97.4141C243.394 97.9226 244.471 98.2168 245.229 97.6564C245.87 97.1831 246.037 96.2846 246.074 95.4753C246.161 93.5465 245.893 89.8286 244.101 88.6426C242.562 87.6249 239.729 89.7434 241.401 91.2503Z" fill="#FF8772"/>
<path d="M313.633 79.9055C313.633 80.1378 313.889 80.3488 314.311 80.5052C314.562 80.5997 314.873 80.6756 315.222 80.7215C315.494 80.7568 315.789 80.7781 316.099 80.7781C316.31 80.7781 316.515 80.7701 316.712 80.7515C316.853 80.7381 316.991 80.7215 317.12 80.7002C317.972 80.5624 318.563 80.2603 318.563 79.9062C318.563 79.5794 318.05 79.2932 317.293 79.1441C317.163 79.1168 317.025 79.0982 316.882 79.0822C316.637 79.0523 316.372 79.0363 316.099 79.0363C315.707 79.0336 315.34 79.0662 315.01 79.1228C314.683 79.182 314.397 79.2632 314.173 79.3604C313.835 79.5108 313.633 79.6999 313.633 79.9055Z" fill="white"/>
<path d="M314.091 79.7598C314.083 80.0326 314.165 80.2889 314.31 80.5052C314.561 80.5997 314.872 80.6756 315.221 80.7215C315.494 80.7568 315.788 80.7781 316.099 80.7781C316.31 80.7781 316.515 80.7701 316.712 80.7515C316.96 80.5218 317.114 80.211 317.128 79.8629C317.136 79.5767 317.046 79.3065 316.882 79.0822C316.636 79.0523 316.372 79.0363 316.099 79.0363C315.707 79.0336 315.34 79.0662 315.01 79.1228C314.683 79.182 314.397 79.2632 314.173 79.3604C314.126 79.4869 314.097 79.6193 314.091 79.7598Z" fill="#362F36"/>
<path d="M315.089 78.1965L317.339 78.273C317.657 78.2836 317.926 78.0327 317.937 77.7146C317.948 77.3964 317.697 77.1282 317.379 77.1169L315.128 77.0404C314.811 77.0297 314.542 77.2806 314.531 77.5988C314.52 77.9169 314.771 78.1851 315.089 78.1965Z" fill="#362F36"/>
<path d="M305.98 80.0867C305.98 80.2758 306.151 80.4515 306.442 80.5946C306.721 80.7297 307.113 80.8375 307.569 80.9001C307.839 80.938 308.136 80.9593 308.444 80.9593C308.717 80.9593 308.98 80.9433 309.222 80.9134C309.306 80.9054 309.388 80.8947 309.465 80.8808C310.319 80.743 310.91 80.4402 310.91 80.0867C310.91 79.7573 310.397 79.4737 309.638 79.3253C309.522 79.304 309.403 79.2821 309.276 79.2688C309.016 79.2335 308.735 79.2148 308.444 79.2148C308.055 79.2148 307.685 79.2475 307.358 79.304C306.964 79.3713 306.631 79.4771 306.391 79.6062C306.132 79.7433 305.98 79.9084 305.98 80.0867Z" fill="white"/>
<path d="M306.318 79.9929C306.31 80.2065 306.356 80.4089 306.443 80.5952C306.721 80.7303 307.113 80.8382 307.57 80.9007C307.84 80.9387 308.137 80.96 308.445 80.96C308.718 80.96 308.98 80.944 309.223 80.914C309.412 80.6871 309.526 80.4089 309.536 80.1007C309.547 79.7959 309.45 79.5064 309.277 79.2688C309.017 79.2335 308.736 79.2148 308.445 79.2148C308.056 79.2148 307.686 79.2475 307.359 79.304C306.965 79.3713 306.632 79.4771 306.392 79.6062C306.348 79.728 306.321 79.8578 306.318 79.9929Z" fill="#362F36"/>
<path d="M306.894 78.3771L309.144 78.4537C309.462 78.4643 309.73 78.2134 309.742 77.8953C309.752 77.5778 309.501 77.3089 309.183 77.2976L306.933 77.221C306.615 77.2104 306.347 77.4613 306.335 77.7794C306.325 78.0976 306.576 78.3665 306.894 78.3771Z" fill="#362F36"/>
<path d="M311.643 85.0413C311.59 85.0413 311.539 85.0093 311.518 84.9574L310.527 82.5261C310.507 82.4742 310.519 82.4149 310.56 82.377C310.601 82.3384 310.66 82.3297 310.711 82.353L312.401 83.1577L312.319 80.8595C312.316 80.785 312.375 80.7224 312.449 80.7197C312.521 80.7204 312.586 80.7756 312.589 80.8495L312.678 83.3707C312.68 83.4179 312.657 83.4625 312.618 83.4885C312.579 83.5144 312.529 83.5178 312.485 83.4978L310.909 82.7471L311.769 84.8556C311.797 84.9248 311.763 85.0033 311.695 85.0313C311.677 85.0379 311.66 85.0413 311.643 85.0413Z" fill="#472A1C"/>
<path d="M321.728 82.52C321.688 82.52 321.648 82.502 321.622 82.4681C321.576 82.4095 321.586 82.3243 321.644 82.2784L324.165 80.2977C324.224 80.2511 324.309 80.2617 324.355 80.3203C324.401 80.3789 324.391 80.464 324.332 80.51L321.811 82.4907C321.787 82.5107 321.757 82.52 321.728 82.52Z" fill="#472A1C"/>
<path d="M322.359 86.7065C323.349 86.7065 324.16 85.8966 324.16 84.9055C324.16 83.9152 323.349 83.1045 322.359 83.1045C321.368 83.1045 320.558 83.9145 320.558 84.9055C320.558 85.8959 321.368 86.7065 322.359 86.7065Z" fill="#EAAE4E"/>
<path d="M305.021 86.5356C306.011 86.5356 306.822 85.7257 306.822 84.7346C306.822 83.7443 306.011 82.9336 305.021 82.9336C304.03 82.9336 303.22 83.7443 303.22 84.7346C303.22 85.725 304.03 86.5356 305.021 86.5356Z" fill="#EAAE4E"/>
<path d="M244.346 196.965L244.06 196.506C246.178 195.182 248.369 193.813 250.524 192.197C253.762 189.768 256.918 187.436 259.97 185.18C263.027 182.92 266.188 180.584 269.432 178.151C270.297 177.541 271.146 176.944 271.988 176.353C275.701 173.744 279.207 171.28 282.937 168.428L282.98 168.401C283.689 168.046 284.14 167.832 284.452 167.832L284.517 167.84C287.708 168.638 291.008 169.463 294.082 170.434L293.919 170.949C290.874 169.986 287.596 169.166 284.425 168.373C284.203 168.395 283.678 168.656 283.246 168.872C279.515 171.724 276.01 174.186 272.3 176.793C271.458 177.385 270.61 177.981 269.752 178.586C266.512 181.016 263.35 183.353 260.293 185.613C257.242 187.868 254.087 190.2 250.85 192.628C248.675 194.259 246.474 195.634 244.346 196.965Z" fill="#F5F5F3"/>
<path d="M328.619 180.092C326.384 179.536 324.13 178.9 321.95 178.286C318.523 177.32 314.978 176.321 311.436 175.612L311.541 175.082C315.105 175.795 318.659 176.797 322.097 177.766C324.272 178.379 326.522 179.013 328.749 179.567L328.619 180.092Z" fill="#F5F5F3"/>
<path d="M338.478 198.365H288.274C284.115 198.365 280.713 194.962 280.713 190.804C280.713 186.646 284.115 183.243 288.274 183.243H338.478C342.637 183.243 346.039 186.646 346.039 190.804C346.039 194.962 342.637 198.365 338.478 198.365Z" fill="#FFA9A9"/>
<g opacity="0.54">
<path d="M296.844 105.809C292.548 103.975 287.908 107.463 284.858 111.002C281.809 114.541 278.448 118.755 273.777 118.812C268.514 118.875 264.914 113.636 262.661 108.879C260.408 104.122 257.844 98.6318 252.761 97.2681C249.112 96.289 244.973 98.0441 242.929 101.221C240.885 104.398 240.937 108.727 242.839 111.991C245.096 115.864 249.477 118.07 251.964 121.799C253.889 124.685 254.51 128.213 255.573 131.515C256.969 135.855 259.295 140.045 262.951 142.769C266.607 145.492 271.755 146.486 275.834 144.45C279.331 142.704 281.489 139.164 284.182 136.331C286.875 133.498 291.063 131.21 294.578 132.919C293.798 132.918 295.065 132.33 295.034 131.55C294.818 126.214 294.712 120.872 294.716 115.531C294.719 112.164 295.085 108.68 296.844 105.809Z" fill="#FFC585"/>
</g>
<g opacity="0.54">
<path d="M319.018 113.514C318.24 118.738 321.168 123.689 323.37 128.489C325.572 133.289 326.97 139.397 323.642 143.499C320.481 147.396 314.668 147.538 310.178 149.778C307.081 151.323 304.508 154.055 303.541 157.377C302.573 160.7 303.378 164.575 305.869 166.976C307.994 169.023 311.002 169.822 313.894 170.401C317.108 171.044 320.483 171.501 323.624 170.567C329.234 168.9 332.943 163.174 338.579 161.596C341.228 160.856 344.146 161.089 346.62 159.888C351.495 157.522 352.362 150.744 350.747 145.572C349.133 140.4 345.785 135.864 344.465 130.609C343.519 126.841 343.66 122.87 342.774 119.088C341.516 113.721 337.31 106.951 331.866 104.898C326.135 102.737 319.912 107.515 319.018 113.514Z" fill="#FFC585"/>
</g>
<path d="M319.024 96.1409C315.734 97.259 310.352 97.8401 307.506 95.8467C306.65 97.8953 305.195 99.689 303.366 100.948C303.185 101.073 302.979 101.231 302.986 101.451C302.99 101.61 303.108 101.74 303.218 101.853C304.217 102.882 305.226 103.919 306.416 104.719C308.912 106.397 312.159 106.905 315.048 106.072C317.938 105.239 320.415 103.077 321.632 100.327C320.418 99.0554 320.238 97.4134 319.024 96.1409Z" fill="#FFC585"/>
<path d="M321.652 102.742C321.626 102.742 321.601 102.742 321.575 102.741C319.587 102.691 318.813 101.601 318.528 100.956C317.422 98.4484 320.25 94.895 321.143 93.866C323.507 91.1418 326.75 89.2203 330.275 88.4563C331.309 88.232 332.865 87.9917 334.421 88.4975C336.24 89.0892 337.534 90.5841 337.717 92.3059C337.845 93.5179 337.49 95.3516 335.07 97.2045C333.854 98.1356 332.521 98.9064 331.108 99.496C329.972 99.9699 328.824 100.305 327.714 100.629C327.306 100.747 326.899 100.866 326.494 100.992C326.202 101.083 325.686 101.332 325.186 101.574C323.997 102.148 322.769 102.742 321.652 102.742ZM323.884 96.2448C323.115 97.1313 322.43 98.2395 322.102 98.9862C322.56 98.8118 323.207 98.4997 323.607 98.306C324.256 97.9925 324.869 97.6964 325.42 97.526C325.844 97.3942 326.27 97.2697 326.697 97.1453C327.758 96.8358 328.761 96.5429 329.709 96.1469C330.834 95.6777 331.895 95.064 332.863 94.3226C333.829 93.5825 334.139 92.9934 334.107 92.6886C334.081 92.451 333.765 92.1009 333.299 91.9492C332.749 91.7708 332.033 91.7881 331.043 92.0031C328.28 92.6028 325.738 94.1089 323.884 96.2448Z" fill="#FFC585"/>
<path d="M336.722 105.592C336.557 105.592 336.39 105.587 336.223 105.577C334.905 105.501 333.701 105.174 332.535 104.857C332.109 104.741 331.705 104.631 331.302 104.536C327.609 103.657 323.625 103.926 320.084 105.292C319.149 105.653 318.099 105.187 317.738 104.253C317.378 103.318 317.843 102.267 318.778 101.907C320.436 101.267 322.175 100.829 323.943 100.597C323.736 100.432 323.563 100.219 323.442 99.9652C323.008 99.062 323.389 97.9778 324.293 97.5445C327.632 95.9425 331.196 94.9647 334.886 94.6386C338.109 94.3538 340.37 95.0266 341.802 96.6952C343.363 98.5142 343.451 101.329 342.007 103.242C340.882 104.732 338.932 105.592 336.722 105.592ZM326.942 100.4C328.694 100.4 330.443 100.601 332.143 101.005C332.602 101.114 333.052 101.236 333.487 101.355C334.518 101.635 335.492 101.9 336.432 101.954C337.359 102.008 338.549 101.8 339.11 101.055C339.522 100.51 339.493 99.5765 339.048 99.058C338.442 98.3525 337.15 98.0823 335.205 98.2533C332.282 98.5116 329.45 99.233 326.769 100.4C326.827 100.4 326.885 100.4 326.942 100.4Z" fill="#FFC585"/>
<path d="M318.256 96.3867C316.469 98.1019 316.952 101.542 319.143 102.698C314.733 105.994 312.385 111.841 313.29 117.271C318.715 115.785 322.684 110.153 322.257 104.544C323.6 107.784 326.372 110.4 329.686 111.552C331.715 112.257 333.974 112.462 335.724 113.709C334.233 108.715 330.259 104.529 325.349 102.781" fill="#FFC585"/>
<path d="M313.289 117.573C313.232 117.573 313.176 117.557 313.126 117.525C313.055 117.479 313.005 117.405 312.991 117.32C312.093 111.932 314.345 106.127 318.612 102.726C317.706 102.087 317.081 101.022 316.908 99.7937C316.712 98.396 317.138 97.0409 318.047 96.1683C318.167 96.0525 318.359 96.0565 318.475 96.177C318.591 96.2974 318.587 96.4891 318.466 96.6049C317.696 97.3431 317.338 98.5045 317.507 99.7098C317.677 100.916 318.341 101.933 319.284 102.431C319.376 102.479 319.437 102.571 319.445 102.674C319.453 102.777 319.407 102.878 319.324 102.94C315.098 106.098 312.8 111.664 313.536 116.883C318.689 115.297 322.366 109.956 321.956 104.566C321.945 104.417 322.042 104.284 322.187 104.249C322.331 104.214 322.48 104.29 322.537 104.427C323.845 107.587 326.555 110.143 329.785 111.265C330.429 111.489 331.113 111.666 331.775 111.837C332.929 112.135 334.115 112.442 335.179 113.015C333.55 108.46 329.81 104.69 325.248 103.065C325.091 103.009 325.009 102.836 325.065 102.679C325.121 102.522 325.293 102.439 325.451 102.495C330.448 104.275 334.496 108.539 336.013 113.622C336.051 113.745 336.005 113.879 335.899 113.954C335.794 114.03 335.653 114.03 335.548 113.955C334.409 113.143 333.056 112.793 331.623 112.423C330.95 112.249 330.253 112.069 329.587 111.837C326.633 110.811 324.094 108.642 322.58 105.907C322.342 111.193 318.514 116.153 313.37 117.562C313.343 117.57 313.316 117.573 313.289 117.573Z" fill="#472A1C"/>
<path d="M311.033 85.9103L314.831 85.8584C314.715 86.5805 314.048 87.1296 313.328 87.2541C312.073 87.4711 311.345 86.7949 311.033 85.9103Z" fill="#383138"/>
<path d="M307.764 83.5683C306.35 83.5683 305.034 83.0365 304.086 82.518C302.168 81.4677 300.869 79.7213 300.428 77.6015C300.397 77.451 300.483 77.3013 300.629 77.2527C303.843 76.1858 307.543 76.5825 310.526 78.3156C311.223 78.7209 311.679 79.4145 311.776 80.2191C311.872 81.0078 311.602 81.7732 311.037 82.3183C310.515 82.8215 309.86 83.1909 309.143 83.3866C308.679 83.5137 308.217 83.5683 307.764 83.5683ZM301.081 77.7439C301.535 79.5682 302.697 81.0677 304.377 81.9875C305.53 82.6192 307.265 83.2728 308.983 82.8035C309.594 82.6371 310.174 82.3103 310.616 81.8831C311.044 81.4704 311.248 80.8907 311.175 80.2917C311.101 79.6774 310.753 79.1476 310.221 78.8387C307.467 77.2387 304.071 76.8367 301.081 77.7439Z" fill="#FFEFE9"/>
<path d="M316.649 83.47C316.196 83.47 315.734 83.4154 315.27 83.2889C314.553 83.0932 313.899 82.7239 313.377 82.2207C312.811 81.6756 312.542 80.9102 312.637 80.1215C312.734 79.3168 313.19 78.6233 313.888 78.218C316.871 76.4848 320.571 76.0881 323.784 77.155C323.93 77.2036 324.016 77.3534 323.985 77.5038C323.544 79.6243 322.245 81.3701 320.327 82.4204C319.379 82.9382 318.063 83.47 316.649 83.47ZM314.192 78.7404C313.66 79.0492 313.312 79.579 313.238 80.194C313.165 80.7924 313.369 81.3727 313.797 81.7854C314.24 82.212 314.819 82.5388 315.43 82.7059C317.148 83.1758 318.883 82.5208 320.037 81.8899C321.716 80.9701 322.878 79.4706 323.333 77.6462C320.343 76.7377 316.946 77.1397 314.192 78.7404Z" fill="#FFEFE9"/>
<path d="M305.287 79.8105C305.247 79.8105 305.206 79.8025 305.167 79.7858L300.605 77.8184C300.451 77.7525 300.38 77.5742 300.447 77.4211C300.513 77.2673 300.691 77.1968 300.844 77.2633L305.407 79.2314C305.56 79.2973 305.631 79.4757 305.564 79.6288C305.516 79.7419 305.404 79.8105 305.287 79.8105Z" fill="#FFEFE9"/>
<path d="M313.679 78.8797H310.373C310.206 78.8797 310.071 78.7446 310.071 78.5776C310.071 78.4105 310.206 78.2754 310.373 78.2754H313.679C313.846 78.2754 313.982 78.4105 313.982 78.5776C313.982 78.7439 313.846 78.8797 313.679 78.8797Z" fill="#FFEFE9"/>
<path d="M309.991 71.9961C308.537 74.0287 306.144 75.4477 303.644 75.4224C303.045 72.7382 303.715 69.7984 305.417 67.6386C306.434 66.3494 309.433 63.5553 311.155 64.9311C313.032 66.4306 310.977 70.617 309.991 71.9961Z" fill="#383138"/>
<path d="M313.87 72.1216C315.816 74.4091 319.019 76.0065 322.364 75.9778C323.166 72.9568 322.27 69.6483 319.991 67.217C318.631 65.766 314.617 62.6219 312.314 64.17C309.801 65.8579 312.551 70.5694 313.87 72.1216Z" fill="#383138"/>
<path d="M324.862 164.325C317.089 180.954 336.047 190.086 350.107 188.968C353.375 188.708 357.119 188.88 358.351 185.843C358.351 185.843 358.983 157.551 358.742 148.161C358.54 140.297 347.206 146.27 346.249 146.641C336.993 150.221 329.225 154.99 324.862 164.325Z" fill="#FFA9A9"/>
<path d="M317.471 252.743C316.969 252.743 316.563 252.337 316.563 251.836V198.307C316.563 197.805 316.969 197.399 317.471 197.399C317.972 197.399 318.378 197.805 318.378 198.307V251.836C318.378 252.337 317.972 252.743 317.471 252.743Z" fill="#383138"/>
<path d="M349.225 254.467C348.773 254.467 348.407 254.101 348.407 253.65C348.407 247.848 344.642 243.127 340.015 243.127H300.232C299.781 243.127 299.415 242.761 299.415 242.31C299.415 241.858 299.781 241.492 300.232 241.492H340.015C345.544 241.492 350.042 246.947 350.042 253.651C350.042 254.101 349.676 254.467 349.225 254.467Z" fill="#383138"/>
<path d="M280.728 254.53C280.242 254.53 279.848 254.136 279.848 253.65C279.848 246.912 285.024 241.43 291.386 241.43H337.432C337.918 241.43 338.311 241.823 338.311 242.31C338.311 242.796 337.918 243.189 337.432 243.189H291.387C285.994 243.189 281.607 247.882 281.607 253.651C281.607 254.137 281.213 254.53 280.728 254.53Z" fill="#383138"/>
<path d="M281.18 260C283.936 260 286.17 257.766 286.17 255.01C286.17 252.255 283.936 250.021 281.18 250.021C278.424 250.021 276.19 252.255 276.19 255.01C276.19 257.766 278.424 260 281.18 260Z" fill="#383138"/>
<path d="M348.318 259.547C351.074 259.547 353.308 257.313 353.308 254.557C353.308 251.801 351.074 249.567 348.318 249.567C345.562 249.567 343.328 251.801 343.328 254.557C343.328 257.313 345.562 259.547 348.318 259.547Z" fill="#383138"/>
<path d="M317.471 260C320.227 260 322.461 257.766 322.461 255.01C322.461 252.255 320.227 250.021 317.471 250.021C314.715 250.021 312.481 252.255 312.481 255.01C312.481 257.766 314.715 260 317.471 260Z" fill="#383138"/>
<path d="M332.971 182.909C332.887 182.909 332.802 182.874 332.742 182.805C328.809 178.268 327.854 171.134 330.368 165.054C332.597 159.662 337.403 155.038 343.551 152.37C344.366 152.016 345.226 151.678 346.058 151.352C349.616 149.956 353.294 148.514 355.004 145.27C355.082 145.122 355.265 145.066 355.413 145.143C355.561 145.221 355.617 145.404 355.539 145.552C353.724 148.994 349.939 150.479 346.279 151.915C345.452 152.239 344.597 152.575 343.792 152.924C337.786 155.531 333.097 160.036 330.927 165.285C328.499 171.159 329.412 178.04 333.199 182.408C333.308 182.535 333.295 182.726 333.168 182.835C333.112 182.885 333.042 182.909 332.971 182.909Z" fill="#472A1C"/>
<path d="M217.908 196.398C214.969 195.223 211.39 195.208 211.354 195.208V194.668C211.505 194.668 215.07 194.682 218.109 195.897L217.908 196.398Z" fill="#F5F5F3"/>
</svg>
