<svg width="352" height="245" viewBox="0 0 352 245" fill="none" xmlns="http://www.w3.org/2000/svg">
<path d="M340.748 210.357C344.387 214.054 349.052 222.132 338.604 224.874" stroke="black" stroke-width="1.61902" stroke-linecap="round"/>
<path d="M340.929 218.197C340.309 214.959 337.759 208.853 332.257 206.893C331.353 206.571 330.369 206.36 329.301 206.293" stroke="black" stroke-width="1.61902" stroke-linecap="round"/>
<path d="M334.559 188.002C327.326 192.809 315.447 205.458 325.799 217.6C336.151 229.741 340.2 230.806 340.929 229.82" stroke="black" stroke-width="1.61902" stroke-linecap="round"/>
<path d="M342.673 197.582L332.207 206.873" stroke="black" stroke-width="1.61902" stroke-linecap="round"/>
<path d="M332.207 187.131C332.849 187.203 333.668 187.437 334.588 187.887C337.117 189.121 340.407 191.981 342.851 197.579C343.552 199.185 344.184 201.017 344.708 203.099" stroke="black" stroke-width="1.61902" stroke-linecap="round"/>
<path d="M333.371 184.228C337.946 184.808 347.374 187.479 348.488 193.518" stroke="black" stroke-width="1.61902" stroke-linecap="round"/>
<path d="M335.115 181.107C337.395 180.469 342.97 179.735 347.035 181.905" stroke="black" stroke-width="1.61902" stroke-linecap="round"/>
<path d="M156.615 40.7764L175.011 66.439" stroke="black" stroke-width="1.61902" stroke-linecap="round"/>
<path d="M158.186 64.6426L167.362 72.5084" stroke="black" stroke-width="1.61902" stroke-linecap="round"/>
<path d="M164.527 83.0202L138.072 73.2939" stroke="black" stroke-width="1.61902" stroke-linecap="round"/>
<path d="M149.342 93.6862L161.795 93.2617" stroke="black" stroke-width="1.61902" stroke-linecap="round"/>
<path d="M131.24 111.234L165.23 102.896" stroke="black" stroke-width="1.61902" stroke-linecap="round"/>
<path d="M201.231 93.4279C199.491 99.9149 196.467 105.363 193.022 108.933C189.557 112.525 185.8 114.096 182.528 113.22C179.256 112.345 176.789 109.108 175.586 104.268C174.39 99.4551 174.499 93.227 176.24 86.74C177.98 80.253 181.004 74.8049 184.449 71.2346C187.914 67.6431 191.671 66.0718 194.943 66.9475C198.215 67.8228 200.682 71.0598 201.885 75.9003C203.081 80.7129 202.972 86.9409 201.231 93.4279Z" stroke="black" stroke-width="1.61902"/>
<path d="M186.485 93.9901C187.726 94.3221 189.237 92.7078 189.86 90.3846C190.484 88.0613 189.983 85.9088 188.743 85.5767C187.502 85.2447 185.991 86.859 185.367 89.1822C184.744 91.5055 185.245 93.658 186.485 93.9901Z" fill="black"/>
<path d="M238.996 108.043C240.617 105.591 241.151 101.506 241.216 99.7695L245.155 102.477C246.38 105.089 244.762 106.931 243.8 107.525L238.996 108.043Z" fill="black"/>
<path d="M186.619 113.114L243.798 107.524M245.152 102.476L196.833 67.7539L245.152 102.476Z" stroke="black" stroke-width="1.61902" stroke-linecap="round"/>
<path d="M186.57 93.1121L198.246 101.196M188.376 86.3815L202.384 85.7715L188.376 86.3815Z" stroke="black" stroke-width="1.61902" stroke-linecap="round"/>
<path d="M247.953 186.97L236.111 198.894C226.434 207.567 220.045 200.897 216.12 197.329C212.05 191.606 205.654 184.458 205.654 160.54C205.654 145.588 209.288 138.303 223.969 143.819" stroke="black" stroke-width="1.61902" stroke-linecap="round"/>
<path d="M245.153 102.477C245.642 103.459 246.055 105.844 243.799 107.525" stroke="black" stroke-width="1.61902" stroke-linecap="round"/>
<path d="M240.972 99.5537C241.048 101.327 240.525 105.145 238.715 107.967" stroke="black" stroke-width="1.61902" stroke-linecap="round"/>
<path d="M272.373 125.989C262.344 125.989 239.668 131.215 230.365 152.555" stroke="black" stroke-width="1.61902" stroke-linecap="round"/>
<path d="M204.556 126.78C203.893 127.629 203.174 129.705 205.168 131.613C205.315 131.755 205.478 131.895 205.657 132.034C208.246 134.05 209.52 132.217 209.834 131.048" stroke="black" stroke-width="1.61902" stroke-linecap="round"/>
<path d="M212.466 127.409C213.247 129.433 211.731 129.962 210.875 129.974C210.672 129.951 210.428 129.913 210.154 129.858C208.654 129.557 206.262 128.757 204.858 127.162C204.742 127.03 204.643 126.903 204.557 126.78C203.409 125.132 204.811 124.205 205.723 123.937" stroke="black" stroke-width="1.61902" stroke-linecap="round"/>
<path d="M207.225 120.581C206.379 120.555 204.814 120.928 205.322 122.627C205.829 124.326 210.111 126.464 212.189 127.32C212.279 127.354 212.372 127.384 212.466 127.409C213.316 127.633 214.263 127.44 214.568 126.304C214.999 124.697 213.086 123.603 212.643 123.384" stroke="black" stroke-width="1.61902" stroke-linecap="round"/>
<path d="M213.417 117.129C212.534 117.243 211.523 118.245 213.161 119.765C214.8 121.286 213.973 122.538 213.354 122.973C212.43 123.427 209.872 123.274 207.039 119.029C204.205 114.784 210.842 114.386 214.516 114.718" stroke="black" stroke-width="1.61902" stroke-linecap="round"/>
<path d="M220.517 122.635C219.265 120.947 216.64 118.351 216.165 121.471C215.689 124.589 217.479 126.481 218.434 127.037" stroke="black" stroke-width="1.61902" stroke-linecap="round"/>
<path d="M217.281 136.948C216.652 135.928 215.917 132.946 218.012 129.178" stroke="black" stroke-width="1.61902" stroke-linecap="round"/>
<path d="M217.02 110.428L213.414 119.382" stroke="black" stroke-width="1.61902" stroke-linecap="round"/>
<path d="M220.18 123.897L227.089 109.364" stroke="black" stroke-width="1.61902" stroke-linecap="round"/>
<path d="M207.507 135.234C206.793 137.898 204.588 141.066 207.171 142.659C210.324 144.603 211.526 141.57 213.093 138.533L217.514 129.346" stroke="black" stroke-width="1.61902" stroke-linecap="round"/>
<path d="M222.807 120.474C224.357 125.942 224.406 137.141 224.406 159.352" stroke="black" stroke-width="1.61902" stroke-linecap="round"/>
<path d="M319.195 178.251C326.302 195.236 316.563 210.188 319.195 238.496C301.558 243.722 262.535 249.732 247.534 231.963C246.855 228.866 247.534 211.349 247.534 200.026" stroke="black" stroke-width="1.61902" stroke-linecap="round"/>
<path d="M304.221 152.846L301.886 149.267C299.611 145.78 295.183 144.387 291.317 145.944L285.754 148.184C282.283 149.582 278.306 148.613 275.871 145.775L269.48 138.329" stroke="black" stroke-width="1.61902" stroke-linecap="round"/>
<path d="M272.099 126.546C270.79 122.772 271.982 120.232 273.145 119.748C280.122 126.135 290.704 123.764 294.629 119.893C296.024 121.171 295.21 124.949 294.629 126.111C287.07 134.472 276.314 129.788 272.099 126.546Z" fill="black"/>
<path d="M252.056 67.2028C255.254 78.6711 256.852 79.6873 261.504 84.7682C261.504 79.7468 262.368 71.3186 262.368 67.809C277.598 67.809 290.452 61.5998 294.974 58.4952C294.812 69.0238 304.696 75.908 304.696 75.908C304.696 75.908 303.278 80.16 302.468 89.6763C301.82 97.2893 303.683 95.8181 304.696 94.1307C307.612 84.736 312.392 87.2465 314.417 89.6763C339.27 49.3472 301.05 41.5548 293.76 42.2972C288.251 37.5998 280.568 33.9186 275.168 33.3787C255.69 31.4314 246.87 48.6075 252.056 67.2028Z" fill="black"/>
<path d="M304.354 101.309C301.738 117.261 284.176 128.732 271.504 115.81C258.831 102.887 261.367 79.2327 262.721 68.1943" stroke="black" stroke-width="1.61902" stroke-linecap="round"/>
<path d="M314.705 88.6875C316.304 92.607 314.804 101.292 304.355 101.292" stroke="black" stroke-width="1.61902" stroke-linecap="round"/>
<path d="M310.096 90.8408C310.327 91.6796 310.142 93.667 307.553 94.9055" stroke="black" stroke-width="1.61902" stroke-linecap="round"/>
<path d="M263.073 99.2606C259.663 97.8409 257.259 92.5829 258.184 84.1631" stroke="black" stroke-width="1.61902" stroke-linecap="round"/>
<path d="M270.725 89.0474C269.756 88.6589 269.378 87.3328 269.88 86.0856C270.381 84.8384 271.573 84.1423 272.541 84.5308C273.51 84.9194 273.888 86.2455 273.386 87.4927C272.885 88.7399 271.693 89.436 270.725 89.0474Z" fill="black"/>
<path d="M288.506 89.5475C287.524 89.1962 287.066 87.9664 287.484 86.8006C287.902 85.6348 289.037 84.9745 290.02 85.3258C291.002 85.6771 291.46 86.907 291.042 88.0727C290.624 89.2385 289.489 89.8988 288.506 89.5475Z" fill="black"/>
<path d="M296.214 83.8723C295.755 82.5231 293.775 80.0273 289.527 80.8368" stroke="black" stroke-width="1.61902" stroke-linecap="round"/>
<path d="M275.864 81.2599C274.851 80.3837 272.095 79.1567 269.178 81.2599" stroke="black" stroke-width="1.61902" stroke-linecap="round"/>
<path d="M278.421 87.5449C278.082 90.4117 275.861 96.5454 279.64 96.5454" stroke="black" stroke-width="1.61902" stroke-linecap="round"/>
<path d="M295.049 124.974C323.975 124.974 360.169 155.314 348.886 193.203" stroke="black" stroke-width="1.61902" stroke-linecap="round"/>
<path d="M316.654 166.952C317.963 168.355 320.87 172.236 322.033 176.533C323.195 180.83 326.49 183.84 327.992 184.808" stroke="black" stroke-width="1.61902" stroke-linecap="round"/>
<path d="M90.0224 126.787C90.334 135.914 98.7077 140.703 104.188 142.416C104.867 142.628 105.032 143.565 104.443 143.964C95.56 149.979 91.9982 152.545 93.511 166.418C94.7901 178.147 77.764 179.144 69.091 178.176C59.6428 177.596 37.5485 176.376 24.757 176.144C11.9656 175.912 6.05442 161.53 4.69775 154.369C4.11633 149.046 2.57554 132.797 1.06383 110.383C-0.825813 82.3653 39.4381 85.7041 67.6374 90.3495C95.8367 94.9949 89.5864 114.012 90.0224 126.787Z" stroke="black" stroke-width="1.61902" stroke-linecap="round"/>
<path d="M14.9556 26.7043C14.7134 17.4619 21.2927 0.544833 42.573 1.00937C69.1733 1.59005 99.6984 2.46106 107.838 17.5586" stroke="black" stroke-width="1.61902" stroke-linecap="round"/>
<path d="M14.0834 67.2061C13.2112 73.4483 13.7343 87.2974 15.8275 89.8523" stroke="black" stroke-width="1.61902" stroke-linecap="round"/>
<path d="M91.9941 116.708C97.8569 118.596 109.815 118.915 110.745 105.095C111.475 94.2585 115.29 88.4262 118.282 85.8765C118.888 85.3601 118.797 83.7844 118.181 83.279C116.369 81.7901 114.626 78.8564 115.106 73.7386C115.978 64.4478 117.141 47.1728 115.106 39.624" stroke="black" stroke-width="1.61902" stroke-linecap="round"/>
<path d="M283.199 106.921C282.992 108.075 282.51 109.033 281.935 109.654C281.354 110.281 280.757 110.494 280.271 110.407C279.784 110.32 279.299 109.914 278.972 109.124C278.648 108.343 278.528 107.277 278.735 106.123C278.942 104.968 279.425 104.01 280 103.39C280.581 102.762 281.177 102.55 281.664 102.637C282.15 102.724 282.636 103.129 282.963 103.92C283.286 104.701 283.406 105.766 283.199 106.921Z" stroke="black" stroke-width="1.61902"/>
<path d="M47.4243 45.5511C46.687 53.0828 49.1938 68.1462 65.1195 68.1462M65.1195 68.1462C81.0451 68.1462 83.5524 53.0828 82.8154 45.5511M65.1195 68.1462V75.2317M65.1195 75.2317C61.4171 75.3057 57.6128 75.5079 55.1667 75.6779C51.2883 75.9475 79.5898 76.7907 75.0738 75.6779C73.2121 75.2251 69.2286 75.1495 65.1195 75.2317ZM66.2329 32.2675C66.9749 32.7876 68.6816 34.4509 69.5721 36.9434M55.1659 52.8732V36.9434C55.1021 30.0397 62.8582 22.5654 70.6492 29.4117C75.0738 33.2998 75.0738 55.0324 70.6492 59.5382C67.4281 62.8184 57.5057 63.8233 55.2112 53.2965C55.1809 53.1578 55.1659 53.0149 55.1659 52.8732Z" stroke="black" stroke-width="1.61902" stroke-linecap="round"/>
<path d="M62.1566 125.631C65.9767 122.145 73.4084 116.429 72.5749 121.448C71.5331 127.722 72.5749 139.224 72.5749 140.27C72.5749 141.315 73.6167 143.406 70.4912 141.315C67.3658 139.224 64.2403 137.133 63.1984 136.087M26.7641 124.43C26.4938 122.297 27.9502 118.377 35.947 118.377C46.2451 118.377 57.6867 117.336 57.6867 123.578C57.6867 129.82 59.9751 148.546 51.9655 147.506C45.5578 146.673 36.3277 147.159 32.5136 147.506C30.6068 147.852 26.7932 147.298 26.7932 142.304V124.806C26.7932 124.679 26.7801 124.556 26.7641 124.43Z" stroke="black" stroke-width="1.61902" stroke-linecap="round"/>
</svg>
