<svg width="211" height="112" viewBox="0 0 211 112" fill="none" xmlns="http://www.w3.org/2000/svg">
<path d="M51.73 68.8238L107.913 59.1271C108.647 59.0003 109.093 59.9092 108.544 60.413L82.6909 84.1358C82.6358 84.1863 82.5772 84.2282 82.5072 84.2547C80.1724 85.1392 71.5053 81.6831 66.7253 79.5163C66.3036 79.3251 65.8115 79.556 65.6853 80.0015C64.6279 83.7345 63.3788 87.1714 62.6951 88.9099C62.5658 89.2387 62.2033 89.4054 61.9975 89.1182C60.8185 87.4733 60.6457 80.5986 60.7277 76.5068C60.7353 76.1241 60.455 75.8003 60.081 75.7192C56.6032 74.9644 51.9847 71.9062 50.0039 70.3821" stroke="black" stroke-width="1.49333" stroke-linecap="round"/>
<path d="M66.5312 78.6429C72.4839 75.805 87.5428 68.6972 100.157 62.9697" stroke="black" stroke-width="1.49333" stroke-linecap="round"/>
<path d="M61.9707 89.4713L73.0844 82.3472" stroke="black" stroke-width="1.49333" stroke-linecap="round"/>
<path d="M64.5371 73.2281L79.9253 67.8137" stroke="black" stroke-width="1.49333" stroke-linecap="round"/>
<path d="M55.9117 99.0454C50.2598 102.099 34.8303 105.363 18.328 93.985" stroke="black" stroke-width="1.49333" stroke-linecap="round"/>
<path d="M47.541 92.0432C38.1192 90.6364 15.7321 82.2235 1.55834 59.8264" stroke="black" stroke-width="1.49333" stroke-linecap="round"/>
<path d="M128.572 43.4305C124.727 67.1376 136.455 88.4109 154.326 91.3092C172.197 94.2075 190.047 77.7312 193.892 54.0241C197.737 30.317 186.009 9.0437 168.138 6.14539C150.267 3.24709 132.417 19.7234 128.572 43.4305Z" stroke="black" stroke-width="1.49333"/>
<path d="M136.013 44.2014C134.544 53.2633 135.943 61.8803 139.357 68.4814C142.772 75.0827 148.171 79.6242 154.71 80.6846C161.248 81.745 167.806 79.1428 173.132 73.9591C178.458 68.7754 182.509 61.0423 183.978 51.9805C185.448 42.9186 184.049 34.3016 180.634 27.7004C177.22 21.0992 171.82 16.5577 165.282 15.4973C158.743 14.4368 152.185 17.0391 146.86 22.2228C141.534 27.4065 137.483 35.1395 136.013 44.2014Z" stroke="black" stroke-width="1.49333"/>
<ellipse cx="12.6243" cy="17.022" rx="12.6243" ry="17.022" transform="matrix(-0.987103 -0.160089 -0.160089 0.987103 172.871 33.6721)" fill="black"/>
<path d="M186.692 86.9072C163.895 108.85 138.533 96.0261 133.118 82.2052C135.529 95.9914 151.866 103.813 165.462 104.147C180.423 104.147 199.088 91.7514 204.218 80.4951C223.094 39.0732 194.339 9.91842 179.995 5.83398C206.925 18.515 211.194 63.3242 186.692 86.9072Z" fill="black"/>
</svg>
