<svg width="78" height="77" viewBox="0 0 78 77" fill="none" xmlns="http://www.w3.org/2000/svg">
<path fill-rule="evenodd" clip-rule="evenodd" d="M30.5734 -4.70749C30.7994 -2.29118 31.4397 2.06942 33.2502 7.00267C34.502 10.4131 36.3129 14.0961 38.9307 17.6009C43.5387 23.7708 50.0573 29.0093 58.1969 31.1421C64.9619 32.9146 72.8476 32.5447 81.6946 28.7751C81.9488 28.6656 82.066 28.3704 81.9565 28.1163C81.8468 27.8622 81.5517 27.7449 81.2977 27.8544C72.6988 31.6075 65.0098 32.044 58.3949 30.3724C50.3963 28.3511 43.9701 23.2572 39.3994 17.2477C36.7852 13.8105 34.967 10.1902 33.702 6.83456C31.8656 1.96274 31.1937 -2.35223 30.9488 -4.74423C30.9387 -4.84787 30.8463 -4.92371 30.7428 -4.91368C30.6392 -4.90343 30.5633 -4.81113 30.5734 -4.70749Z" fill="#A9503C"/>
<path fill-rule="evenodd" clip-rule="evenodd" d="M69.791 20.6943C70.2407 20.7471 74.2001 21.2603 75.9358 22.8659C78.9773 25.6796 77.5527 29.0956 77.4982 29.2222C76.7142 28.141 75.2971 26.2605 74.116 25.0401C72.9424 23.8271 70.9569 21.8492 69.791 20.6943Z" fill="#A9503C"/>
<path fill-rule="evenodd" clip-rule="evenodd" d="M69.791 20.6927C70.9569 21.8476 72.9424 23.8254 74.1161 25.0383C75.2971 26.2588 76.7143 28.1395 77.4982 29.2207L77.4968 29.2242C77.4968 29.2242 73.0348 28.8509 71.4112 26.2598C69.8252 23.7288 69.7493 20.6868 69.7493 20.6868L69.791 20.6927Z" fill="#BF604B"/>
<path fill-rule="evenodd" clip-rule="evenodd" d="M25.291 3.84082C25.4317 4.15996 26.7069 6.95857 28.2824 7.87253C31.0432 9.47396 33.2352 7.65098 33.316 7.58215C32.3423 7.25005 30.6368 6.63295 29.4706 6.04002C28.3116 5.45092 26.4055 4.43743 25.291 3.84082Z" fill="#A9503C"/>
<path fill-rule="evenodd" clip-rule="evenodd" d="M25.2864 3.8421C26.4009 4.43871 28.307 5.45219 29.466 6.04142C30.6322 6.63423 32.3379 7.25136 33.3116 7.58346L33.3139 7.58162C33.3139 7.58162 32.0277 4.3813 29.7522 3.77323C27.5294 3.17921 25.2727 3.81275 25.2727 3.81275L25.2864 3.8421Z" fill="#BF604B"/>
<path fill-rule="evenodd" clip-rule="evenodd" d="M29.4199 16.4697C29.6716 16.7518 31.9206 19.2113 33.8501 19.6275C37.231 20.3568 38.8822 17.7454 38.9426 17.6475C37.8279 17.6302 35.8635 17.5635 34.4632 17.3415C33.0716 17.1212 30.7681 16.7127 29.4199 16.4697Z" fill="#A9503C"/>
<path fill-rule="evenodd" clip-rule="evenodd" d="M29.4191 16.4723C30.7673 16.7152 33.0708 17.1237 34.4624 17.3442C35.8626 17.566 37.8272 17.6327 38.9419 17.65L38.9437 17.6474C38.9437 17.6474 36.5492 14.7773 34.0002 14.9102C31.5102 15.04 29.3951 16.4466 29.3951 16.4466L29.4191 16.4723Z" fill="#BF604B"/>
<path fill-rule="evenodd" clip-rule="evenodd" d="M48.2109 19.8887C48.4923 20.0265 50.9578 21.2722 51.721 22.7191C53.0584 25.2547 51.343 27.156 51.2783 27.2261C51.0155 26.3403 50.5234 24.7872 50.0334 23.7192C49.5467 22.6577 48.7061 20.9104 48.2109 19.8887Z" fill="#A9503C"/>
<path fill-rule="evenodd" clip-rule="evenodd" d="M48.2106 19.8898C48.7057 20.9116 49.5463 22.6589 50.0332 23.7204C50.523 24.7884 51.0152 26.3415 51.278 27.2274L51.2763 27.2294C51.2763 27.2294 48.4506 25.9594 47.9872 23.8952C47.5345 21.8788 48.1847 19.8764 48.1847 19.8764L48.2106 19.8898Z" fill="#BF604B"/>
<path fill-rule="evenodd" clip-rule="evenodd" d="M36.8535 -3.28906C36.8678 -3.00665 36.9631 -0.515155 36.1547 0.720525C34.738 2.88576 32.4865 2.36342 32.4028 2.34301C32.9872 1.74792 33.998 0.679889 34.6268 -0.17422C35.2518 -1.02293 36.2635 -2.45111 36.8535 -3.28906Z" fill="#A9503C"/>
<path fill-rule="evenodd" clip-rule="evenodd" d="M36.8502 -3.28712C36.2602 -2.44917 35.2485 -1.02101 34.6236 -0.172199C33.9947 0.68183 32.9838 1.74992 32.3995 2.34501L32.3971 2.34452C32.3971 2.34452 32.1635 -0.441936 33.5904 -1.71095C34.9842 -2.95059 36.8495 -3.3134 36.8495 -3.3134L36.8502 -3.28712Z" fill="#BF604B"/>
<path fill-rule="evenodd" clip-rule="evenodd" d="M47.252 36.502C47.665 36.5774 51.3209 37.1976 53.4593 36.2404C57.2064 34.5629 57.2881 31.1345 57.2896 31.0069C56.1857 31.7562 54.2188 33.0447 52.7141 33.8099C51.2188 34.5704 48.718 35.791 47.252 36.502Z" fill="#A9503C"/>
<path fill-rule="evenodd" clip-rule="evenodd" d="M47.2506 36.5004C48.7166 35.7895 51.2175 34.5689 52.7129 33.8084C54.2175 33.0432 56.1845 31.7545 57.2884 31.0053L57.2886 31.0017C57.2886 31.0017 53.2482 30.1203 50.8253 31.9853C48.4586 33.8069 47.212 36.4943 47.212 36.4943L47.2506 36.5004Z" fill="#BF604B"/>
<path fill-rule="evenodd" clip-rule="evenodd" d="M71.9577 39.5501C72.4353 37.8828 72.5079 35.2079 73.888 33.1495C75.2681 31.0909 77.9098 30.3317 77.9098 30.3317C77.9098 30.3317 77.8633 32.3378 76.2247 34.7015C75.3573 35.9528 73.3907 38.0545 72.4617 39.0272L71.9577 39.5501Z" fill="#BF604B"/>
<path fill-rule="evenodd" clip-rule="evenodd" d="M77.9107 30.3329C77.9107 30.3329 80.4202 32.9922 78.8648 35.4943C77.041 38.4279 71.9586 39.5513 71.9586 39.5513L72.4626 39.0284C73.3916 38.0557 75.3581 35.9541 76.2256 34.7028C77.8642 32.3391 77.9107 30.3329 77.9107 30.3329Z" fill="#A9503C"/>
<path fill-rule="evenodd" clip-rule="evenodd" d="M43.701 30.5559C44.8795 29.9257 46.398 28.531 48.2768 28.1902C50.1558 27.8494 51.9928 28.9033 51.9928 28.9033C51.9928 28.9033 50.8582 29.9537 48.6718 30.3153C47.5143 30.5067 45.297 30.5463 44.2606 30.5542L43.701 30.5559Z" fill="#BF604B"/>
<path fill-rule="evenodd" clip-rule="evenodd" d="M51.9961 28.902C51.9961 28.902 51.8713 31.7165 49.653 32.1983C47.052 32.7632 43.7044 30.5545 43.7044 30.5545L44.264 30.5528C45.3003 30.5449 47.5177 30.5053 48.6751 30.3139C50.8615 29.9523 51.9961 28.902 51.9961 28.902Z" fill="#A9503C"/>
<path fill-rule="evenodd" clip-rule="evenodd" d="M55.5483 37.403C56.4411 36.25 57.3319 34.1839 59.0514 33.0069C60.7709 31.8298 63.0705 32.0607 63.0705 32.0607C63.0705 32.0607 62.4086 33.6127 60.3921 34.9475C59.3246 35.6541 57.1336 36.682 56.1049 37.1519L55.5483 37.403Z" fill="#BF604B"/>
<path fill-rule="evenodd" clip-rule="evenodd" d="M63.07 32.0577C63.07 32.0577 64.2003 34.9168 62.2056 36.3855C59.8668 38.1076 55.5478 37.4001 55.5478 37.4001L56.1044 37.149C57.1331 36.6791 59.324 35.6512 60.3916 34.9445C62.4081 33.6097 63.07 32.0577 63.07 32.0577Z" fill="#A9503C"/>
<path fill-rule="evenodd" clip-rule="evenodd" d="M58.4142 24.2253C58.7048 25.4368 58.6734 27.3587 59.5995 28.879C60.5256 30.3995 62.3978 31.0269 62.3978 31.0269C62.3978 31.0269 62.4271 29.5857 61.325 27.8382C60.7415 26.9131 59.3959 25.3434 58.7596 24.6163L58.4142 24.2253Z" fill="#BF604B"/>
<path fill-rule="evenodd" clip-rule="evenodd" d="M62.3947 31.027C62.3947 31.027 64.2787 29.1969 63.2406 27.3527C62.0235 25.1904 58.4111 24.2254 58.4111 24.2254L58.7565 24.6164C59.3928 25.3435 60.7384 26.9132 61.3219 27.8383C62.424 29.5858 62.3947 31.027 62.3947 31.027Z" fill="#A9503C"/>
<path fill-rule="evenodd" clip-rule="evenodd" d="M71.1804 30.5072C70.4828 30.7987 67.545 31.7817 65.1922 28.8465C63.6678 26.9445 63.7885 24.4778 63.4305 22.9053L67.6052 26.7718C68.7699 27.8485 71.334 30.438 71.334 30.438L71.1804 30.5072Z" fill="#BF604B"/>
<path fill-rule="evenodd" clip-rule="evenodd" d="M64.0379 22.9247C65.1677 22.9893 67.6018 23.2758 68.9985 24.5326C71.4166 26.7087 71.3905 29.5986 71.3463 30.2872L71.3332 30.4389C71.3332 30.4389 68.7691 27.8494 67.6044 26.7727C66.4398 25.6961 63.4297 22.9062 63.4297 22.9062L64.0379 22.9247Z" fill="#A9503C"/>
<path fill-rule="evenodd" clip-rule="evenodd" d="M37.5108 13.352C37.0547 13.0007 35.5784 11.5635 36.6317 8.89957C37.3142 7.17326 38.7084 6.18734 39.6133 5.357L38.6319 9.5775C38.3594 10.7542 37.6146 13.4275 37.6146 13.4275L37.5108 13.352Z" fill="#BF604B"/>
<path fill-rule="evenodd" clip-rule="evenodd" d="M39.8287 5.76857C40.2124 6.54021 40.9418 8.25823 40.6377 9.65634C40.1112 12.077 38.19 13.1506 37.7179 13.3813L37.6126 13.4299C37.6126 13.4299 38.3574 10.7566 38.6299 9.57988C38.9024 8.40327 39.6113 5.35938 39.6113 5.35938L39.8287 5.76857Z" fill="#A9503C"/>
<path fill-rule="evenodd" clip-rule="evenodd" d="M42.601 22.248C42.3615 22.8724 41.1962 25.3527 37.8809 25.0655C35.7328 24.8793 34.2281 23.2955 33.0032 22.5641L38.0271 22.2543C39.4275 22.1666 42.6506 22.1074 42.6506 22.1074L42.601 22.248Z" fill="#A9503C"/>
<path fill-rule="evenodd" clip-rule="evenodd" d="M33.3872 22.1846C34.1186 21.5011 35.7886 20.1184 37.4458 19.9924C40.3152 19.7741 42.1485 21.5559 42.5621 22.0048L42.6513 22.1058C42.6513 22.1058 39.4282 22.165 38.0278 22.2526C36.6276 22.3403 33.0039 22.5625 33.0039 22.5625L33.3872 22.1846Z" fill="#BF604B"/>
<path fill-rule="evenodd" clip-rule="evenodd" d="M31.6246 2.25303C31.2299 2.56795 29.523 3.73708 27.4746 2.28263C26.1473 1.34011 25.7733 -0.266233 25.2555 -1.21067L28.6446 0.508373C29.5897 0.986702 31.7106 2.18048 31.7106 2.18048L31.6246 2.25303Z" fill="#A9503C"/>
<path fill-rule="evenodd" clip-rule="evenodd" d="M25.6498 -1.31042C26.3873 -1.47573 28.0031 -1.73738 29.1302 -1.18581C31.0817 -0.230883 31.5939 1.63 31.6916 2.08035L31.711 2.1802C31.711 2.1802 29.5901 0.986429 28.6449 0.5081C27.6999 0.0298351 25.2559 -1.21094 25.2559 -1.21094L25.6498 -1.31042Z" fill="#BF604B"/>
<path fill-rule="evenodd" clip-rule="evenodd" d="M41.3141 18.703C40.7894 18.4886 39.2357 17.0112 39.2806 14.6669C39.3156 12.8398 40.5798 11.5895 41.2218 10.565L41.3925 14.8274C41.4411 16.0155 41.4322 18.7475 41.4322 18.7475L41.3141 18.703Z" fill="#BF604B"/>
<path fill-rule="evenodd" clip-rule="evenodd" d="M41.5319 10.8961C42.0977 11.5283 43.2386 12.9686 43.3151 14.3751C43.4476 16.8104 41.9043 18.3311 41.5164 18.6733L41.4292 18.747C41.4292 18.747 41.438 16.015 41.3894 14.8269C41.3407 13.6389 41.2188 10.5645 41.2188 10.5645L41.5319 10.8961Z" fill="#A9503C"/>
<path fill-rule="evenodd" clip-rule="evenodd" d="M63.1849 41.2952C63.1849 41.2952 62.9779 37.8054 64.5926 35.5245C66.662 32.6015 70.378 32.0459 71.2746 31.9525L71.4732 31.9353C71.4732 31.9353 69.6405 33.6442 67.7896 35.671C66.8642 36.6843 65.713 38.0903 64.7932 39.2431L63.1849 41.2952Z" fill="#BF604B"/>
<path fill-rule="evenodd" clip-rule="evenodd" d="M71.5613 32.6003C71.6762 33.84 71.7082 36.5244 70.1264 38.1632C68.0171 40.3485 63.1871 41.2942 63.1871 41.2942L64.7955 39.242C65.7153 38.0893 66.8665 36.6833 67.7919 35.67C69.6427 33.6432 71.4755 31.9343 71.4755 31.9343L71.5613 32.6003Z" fill="#A9503C"/>
<path fill-rule="evenodd" clip-rule="evenodd" d="M36.8262 29.4627C36.8262 29.4627 37.9193 26.7779 39.9428 25.649C42.5361 24.2023 45.5148 25.1154 46.2189 25.3662L46.3736 25.4243C46.3736 25.4243 44.3915 26.0474 42.2821 26.9018C41.2275 27.3289 39.8635 27.9691 38.7632 28.5026L36.8262 29.4627Z" fill="#BF604B"/>
<path fill-rule="evenodd" clip-rule="evenodd" d="M46.1978 25.9534C45.8405 26.9219 44.9045 28.9415 43.1351 29.6019C40.7757 30.4825 36.8243 29.4629 36.8243 29.4629L38.7613 28.5028C39.8616 27.9693 41.2256 27.3291 42.2802 26.902C44.3896 26.0475 46.3717 25.4245 46.3717 25.4245L46.1978 25.9534Z" fill="#A9503C"/>
<path fill-rule="evenodd" clip-rule="evenodd" d="M38.7706 0.529181C38.7706 0.529181 36.4566 1.04233 35.2692 2.51877C33.7476 4.41095 34.0754 6.93715 34.1811 7.53916L34.2067 7.67184C34.2067 7.67184 34.9806 6.15944 35.9585 4.57618C36.4474 3.7846 37.1504 2.77284 37.7312 1.95902L38.7706 0.529181Z" fill="#BF604B"/>
<path fill-rule="evenodd" clip-rule="evenodd" d="M34.6552 7.60774C35.4849 7.4524 37.2411 6.97476 38.016 5.63894C39.0492 3.85774 38.7688 0.532762 38.7688 0.532762L37.7294 1.9626C37.1486 2.77642 36.4456 3.78818 35.9567 4.57976C34.9789 6.16302 34.205 7.67542 34.205 7.67542L34.6552 7.60774Z" fill="#A9503C"/>
<path fill-rule="evenodd" clip-rule="evenodd" d="M44.5317 14.5151C44.5317 14.5151 43.0223 16.7007 43.1726 18.8187C43.3653 21.5329 45.5604 23.358 46.1062 23.7719L46.2284 23.8614C46.2284 23.8614 45.7111 22.0291 45.3072 19.9832C45.1053 18.9603 44.9114 17.5933 44.7681 16.482L44.5317 14.5151Z" fill="#BF604B"/>
<path fill-rule="evenodd" clip-rule="evenodd" d="M46.5463 23.4664C47.1094 22.7062 48.1878 20.975 47.8059 19.287C47.2966 17.0363 44.5314 14.5189 44.5314 14.5189L44.7677 16.4858C44.9111 17.5971 45.105 18.9641 45.3069 19.987C45.7108 22.0329 46.2281 23.8652 46.2281 23.8652L46.5463 23.4664Z" fill="#A9503C"/>
<path fill-rule="evenodd" clip-rule="evenodd" d="M27.092 10.1974C27.092 10.1974 29.4835 9.04154 31.5532 9.51533C34.2057 10.1227 35.6719 12.5721 35.9971 13.1749L36.0667 13.3094C36.0667 13.3094 34.3357 12.5168 32.376 11.8035C31.3963 11.4469 30.0753 11.0453 28.9992 10.733L27.092 10.1974Z" fill="#BF604B"/>
<path fill-rule="evenodd" clip-rule="evenodd" d="M35.6253 13.5626C34.7877 14.0022 32.9113 14.802 31.3021 14.1653C29.1563 13.3164 27.0935 10.1974 27.0935 10.1974L29.0007 10.733C30.0768 11.0453 31.3978 11.4469 32.3775 11.8035C34.3372 12.5168 36.0682 13.3094 36.0682 13.3094L35.6253 13.5626Z" fill="#A9503C"/>
<path fill-rule="evenodd" clip-rule="evenodd" d="M52.9007 19.8726C52.9007 19.8726 51.7206 22.5967 52.3454 24.8862C53.1463 27.8201 55.9495 29.3442 56.6377 29.6795L56.7911 29.751C56.7911 29.751 55.8259 27.8545 54.9387 25.6991C54.4951 24.6215 53.9856 23.1649 53.587 21.9777L52.9007 19.8726Z" fill="#BF604B"/>
<path fill-rule="evenodd" clip-rule="evenodd" d="M57.0517 29.2444C57.504 28.2887 58.3103 26.1563 57.5249 24.3886C56.4775 22.0316 52.8991 19.8723 52.8991 19.8723L53.5854 21.9774C53.984 23.1647 54.4935 24.6213 54.9371 25.6989C55.8243 27.8543 56.7895 29.7507 56.7895 29.7507L57.0517 29.2444Z" fill="#A9503C"/>
<path fill-rule="evenodd" clip-rule="evenodd" d="M86.3334 -37.411C88.3083 -36.0393 91.7594 -33.3634 95.1344 -29.399C97.459 -26.6683 99.7475 -23.3254 101.491 -19.3745C104.538 -12.4667 105.887 -4.37805 103.786 3.59988C102.048 10.1977 97.9454 16.7154 90.5002 22.4248C90.2815 22.5941 90.2414 22.9092 90.4106 23.1281C90.58 23.3469 90.8951 23.387 91.1139 23.2176C98.6936 17.2992 102.833 10.577 104.555 3.79904C106.627 -4.35633 105.196 -12.5957 102.027 -19.6138C100.226 -23.6006 97.8791 -26.9674 95.5001 -29.7131C92.0588 -33.6846 88.5525 -36.3548 86.5472 -37.7217C86.4614 -37.7807 86.3439 -37.7589 86.2848 -37.6733C86.226 -37.5875 86.2476 -37.4699 86.3334 -37.411Z" fill="#A9503C"/>
<path fill-rule="evenodd" clip-rule="evenodd" d="M101.464 19.7513C101.154 21.81 99.5045 24.2599 96.9123 26.7342C95.2385 28.3316 93.169 29.9305 90.8013 31.4391C89.4053 32.3284 87.9082 33.1898 86.3226 33.992C84.3136 35.0269 82.3115 35.8912 80.3799 36.5925C78.1839 37.3897 76.0782 37.9727 74.1442 38.322C70.5798 38.9664 67.6091 38.84 65.7886 37.829C65.6533 37.752 65.4807 37.7993 65.404 37.9344C65.3268 38.0699 65.3741 38.242 65.5093 38.319C67.3984 39.4225 70.5143 39.6704 74.2712 39.0655C76.2535 38.7463 78.417 38.1934 80.6694 37.4056C82.6437 36.7153 84.6837 35.8409 86.7362 34.8019C88.3431 33.9736 89.8641 33.0925 91.2735 32.1699C93.6705 30.6011 95.7509 28.9259 97.4261 27.2623C100.09 24.6174 101.724 21.9887 101.999 19.8257C102.02 19.678 101.916 19.5417 101.768 19.521C101.621 19.5006 101.485 19.6037 101.464 19.7513Z" fill="#DE7C07"/>
<path fill-rule="evenodd" clip-rule="evenodd" d="M66.8423 37.0331C66.8423 37.0331 67.0436 37.3772 67.4931 37.7741C67.642 37.9054 67.8329 38.0167 68.0301 38.1422C68.1402 38.2124 68.252 38.2751 68.3765 38.3334C68.5758 38.4271 68.7564 38.4618 68.9711 38.5426C69.5386 38.7549 69.9865 38.867 70.4917 39.1449C70.5881 39.2754 70.772 39.3027 70.9024 39.2064C71.0327 39.1097 71.0601 38.9258 70.9638 38.7953C70.7689 37.9306 70.542 37.1896 70.0453 36.4426C69.8064 36.084 69.5062 35.8017 69.2186 35.5985C68.6222 35.1773 68.128 35.0836 68.128 35.0836C67.5901 34.7288 66.8652 34.8779 66.5104 35.4158C66.1554 35.9538 66.304 36.6785 66.8423 37.0331Z" fill="#DE7C07"/>
<path fill-rule="evenodd" clip-rule="evenodd" d="M62.6138 36.5917C62.6138 36.5917 62.8151 36.9358 63.2645 37.3327C63.4134 37.464 63.6044 37.5753 63.8016 37.7008C63.9117 37.771 64.0235 37.8337 64.1479 37.892C64.3473 37.9857 64.5278 38.0204 64.7426 38.1012C65.3101 38.3135 65.7579 38.4256 66.2632 38.7035C66.3595 38.834 66.5434 38.8614 66.6739 38.765C66.8042 38.6683 66.8316 38.4844 66.7352 38.3539C66.5403 37.4892 66.3135 36.7482 65.8168 36.0012C65.5779 35.6426 65.2776 35.3603 64.9901 35.1571C64.3937 34.7359 63.8995 34.6422 63.8995 34.6422C63.3616 34.2874 62.6367 34.4365 62.2818 34.9744C61.927 35.5124 62.0754 36.2371 62.6138 36.5917Z" fill="#DE7C07"/>
<path fill-rule="evenodd" clip-rule="evenodd" d="M64.4021 41.5821C64.4021 41.5821 64.8955 41.6795 65.606 41.511C65.9486 41.4295 66.3324 41.2796 66.6878 41.0359C67.4271 40.5279 67.9138 39.9249 68.4171 39.1952C68.5551 39.11 68.5983 38.9291 68.5134 38.7908C68.4283 38.6528 68.2474 38.6097 68.1094 38.6948C67.537 38.7643 67.0796 38.7014 66.4738 38.6868C66.2445 38.6817 66.064 38.6466 65.8441 38.6593C65.7069 38.667 65.5797 38.6834 65.4514 38.7075C65.2217 38.7505 65.003 38.7826 64.8159 38.8489C64.2508 39.0497 63.9358 39.2939 63.9358 39.2939C63.3041 39.4222 62.8961 40.0394 63.0248 40.6708C63.1535 41.3023 63.7706 41.7108 64.4021 41.5821Z" fill="#DE7C07"/>
<path fill-rule="evenodd" clip-rule="evenodd" d="M68.5341 43.319C68.5341 43.319 69.0127 43.1646 69.5521 42.6725C69.8122 42.4351 70.075 42.1177 70.2674 41.7322C70.6673 40.9292 70.8003 40.1658 70.8861 39.2835C70.9655 39.142 70.9154 38.963 70.7742 38.8832C70.6327 38.8038 70.4536 38.8539 70.3743 38.9953C69.9075 39.3339 69.4771 39.5009 68.9404 39.7821C68.7373 39.8889 68.5625 39.9459 68.3764 40.0636C68.2601 40.1369 68.157 40.213 68.0565 40.2964C67.8764 40.4454 67.7008 40.5796 67.5694 40.7284C67.1728 41.1782 67.0159 41.5446 67.0159 41.5446C66.5258 41.9634 66.4686 42.701 66.8876 43.1906C67.3066 43.6803 68.0444 43.738 68.5341 43.319Z" fill="#DE7C07"/>
<path fill-rule="evenodd" clip-rule="evenodd" d="M72.4774 43.5061C72.4774 43.5061 72.9032 43.2384 73.3045 42.6285C73.4979 42.3342 73.6744 41.9618 73.7658 41.5407C73.9553 40.6639 73.8958 39.8913 73.7614 39.0151C73.8034 38.8585 73.7107 38.6973 73.5541 38.6548C73.3975 38.6128 73.2363 38.7055 73.1943 38.8621C72.8254 39.3053 72.4495 39.5733 71.9987 39.9783C71.8283 40.1319 71.673 40.2301 71.5216 40.3902C71.427 40.4899 71.3458 40.5891 71.269 40.6946C71.1313 40.8835 70.9942 41.0569 70.9035 41.2335C70.6301 41.7672 70.5684 42.161 70.5684 42.161C70.1968 42.6877 70.3233 43.4166 70.8501 43.7878C71.3769 44.1589 72.1062 44.0329 72.4774 43.5061Z" fill="#DE7C07"/>
<path fill-rule="evenodd" clip-rule="evenodd" d="M75.9965 43.0751C75.9965 43.0751 76.3742 42.743 76.6732 42.0769C76.8172 41.7556 76.932 41.3598 76.9552 40.9295C77.0024 40.0337 76.8206 39.2804 76.5482 38.4369C76.5647 38.2755 76.4475 38.1312 76.2862 38.1142C76.1248 38.0977 75.9805 38.2149 75.964 38.3762C75.6704 38.8726 75.3421 39.1971 74.9616 39.6687C74.8179 39.8475 74.6802 39.9693 74.5563 40.1514C74.4788 40.2649 74.4144 40.3758 74.3554 40.4922C74.2496 40.7007 74.1419 40.8937 74.0805 41.0824C73.8957 41.6529 73.8975 42.0515 73.8975 42.0515C73.6146 42.6308 73.8557 43.3301 74.435 43.6126C75.0142 43.895 75.7141 43.6544 75.9965 43.0751Z" fill="#DE7C07"/>
<path fill-rule="evenodd" clip-rule="evenodd" d="M79.589 42.1991C79.589 42.1991 79.9022 41.8056 80.0791 41.0972C80.1643 40.7555 80.2076 40.3457 80.1545 39.9181C80.0432 39.028 79.7314 38.3185 79.3146 37.5362C79.3024 37.3744 79.1616 37.253 78.9998 37.2647C78.8381 37.2769 78.7167 37.4177 78.7288 37.5794C78.5274 38.1198 78.2614 38.4971 77.97 39.0283C77.86 39.2297 77.7459 39.3738 77.656 39.5749C77.5998 39.7003 77.5559 39.8208 77.5184 39.9458C77.4509 40.1696 77.3789 40.3786 77.3518 40.5752C77.2704 41.1693 77.3425 41.5614 77.3425 41.5614C77.1661 42.1814 77.5266 42.8274 78.1466 43.0033C78.7666 43.1793 79.4132 42.819 79.589 42.1991Z" fill="#DE7C07"/>
<path fill-rule="evenodd" clip-rule="evenodd" d="M70.2523 36.2156C70.2523 36.2156 70.4066 36.5832 70.7998 37.0359C70.9302 37.1856 71.1048 37.321 71.2838 37.4714C71.3836 37.5555 71.4863 37.6323 71.602 37.7065C71.7873 37.8256 71.9616 37.8838 72.1639 37.9921C72.6985 38.2773 73.1277 38.4474 73.592 38.7894C73.6703 38.9314 73.849 38.9827 73.991 38.9044C74.1329 38.8257 74.1843 38.647 74.1059 38.505C74.0265 37.6221 73.8992 36.8577 73.5052 36.0518C73.3155 35.6649 73.055 35.3456 72.7967 35.1062C72.2609 34.6102 71.7834 34.4523 71.7834 34.4523C71.2968 34.0298 70.5586 34.0821 70.1361 34.5687C69.7135 35.0553 69.7653 35.7932 70.2523 36.2156Z" fill="#DE7C07"/>
<path fill-rule="evenodd" clip-rule="evenodd" d="M73.2992 35.7703C73.2992 35.7703 73.4534 36.1379 73.8467 36.5905C73.9771 36.7402 74.1517 36.8757 74.3306 37.0261C74.4305 37.1102 74.5331 37.187 74.6488 37.2612C74.8341 37.3803 75.0085 37.4385 75.2107 37.5468C75.7454 37.832 76.1746 38.0021 76.6389 38.3441C76.7172 38.4861 76.8959 38.5374 77.0379 38.4591C77.1798 38.3804 77.2311 38.2017 77.1528 38.0597C77.0734 37.1768 76.946 36.4124 76.552 35.6065C76.3624 35.2196 76.1019 34.9003 75.8436 34.6609C75.3078 34.1649 74.8303 34.007 74.8303 34.007C74.3437 33.5845 73.6055 33.6368 73.1829 34.1234C72.7604 34.61 72.8122 35.3479 73.2992 35.7703Z" fill="#DE7C07"/>
<path fill-rule="evenodd" clip-rule="evenodd" d="M76.141 34.9051C76.141 34.9051 76.2952 35.2726 76.6885 35.7253C76.8189 35.875 76.9935 36.0105 77.1724 36.1609C77.2723 36.245 77.3749 36.3218 77.4906 36.3959C77.6759 36.5151 77.8503 36.5733 78.0525 36.6816C78.5872 36.9667 79.0164 37.1369 79.4807 37.4788C79.559 37.6208 79.7377 37.6722 79.8797 37.5939C80.0216 37.5151 80.0729 37.3364 79.9946 37.1944C79.9152 36.3115 79.7878 35.5472 79.3938 34.7413C79.2042 34.3543 78.9437 34.035 78.6854 33.7957C78.1496 33.2997 77.6721 33.1418 77.6721 33.1418C77.1855 32.7192 76.4473 32.7716 76.0247 33.2582C75.6022 33.7448 75.654 34.4827 76.141 34.9051Z" fill="#DE7C07"/>
<path fill-rule="evenodd" clip-rule="evenodd" d="M73.3984 36.8193C73.3984 36.8193 74.9746 36.3757 77.1761 36.3674C78.3704 36.3629 79.7005 36.4354 81.057 36.74C82.6469 37.1783 83.8385 37.4737 84.8717 37.5867C85.9446 37.7039 86.8635 37.6652 87.8287 37.2952C88.7971 36.9932 89.5057 36.3108 90.1289 35.4494C91.0907 34.1205 91.7556 32.2119 92.6583 30.64C93.3984 29.4402 94.1057 28.494 95.0269 27.695C95.7986 27.0256 96.7833 26.6398 98.0902 26.2385L95.0101 25.0302L95.9156 21.4368C94.1063 22.5525 92.8557 23.6035 91.9396 24.901C91.0294 26.1903 90.3685 27.5642 89.7871 29.2936C89.2699 30.6948 89.0159 32.3232 88.4604 33.6373C88.1525 34.3659 87.789 35.0046 87.1241 35.2673C86.5013 35.4618 85.9138 35.4646 85.249 35.3158C84.3522 35.115 83.3706 34.6307 82.0439 34.0249C80.582 33.2708 79.0751 32.8153 77.7156 32.4301C75.0771 31.6828 73.0575 31.5592 73.0575 31.5592L75.7373 34.3367L73.3984 36.8193Z" fill="#4A0803"/>
<path fill-rule="evenodd" clip-rule="evenodd" d="M82.5752 27.8234C82.5517 27.6824 82.6216 27.5427 82.7482 27.4769C82.8748 27.4111 83.0296 27.434 83.1311 27.5343C84.2219 28.607 86.224 30.5766 86.8186 31.1613C86.9201 31.2617 87.0746 31.2848 87.2015 31.2188C87.9411 30.8343 90.4329 29.5388 91.7904 28.8331C91.917 28.7673 92.072 28.7905 92.1734 28.8906C92.2752 28.9908 92.301 29.145 92.2371 29.2726C91.554 30.6412 90.2992 33.1541 89.9269 33.9003C89.863 34.0279 89.8888 34.1822 89.9905 34.2821C90.5851 34.8668 92.5872 36.8364 93.6777 37.9096C93.7794 38.0095 93.8052 38.1637 93.7413 38.2913C93.6777 38.4193 93.539 38.4914 93.3977 38.47C91.8847 38.2431 89.1073 37.8266 88.2828 37.703C88.1415 37.6816 88.0028 37.7537 87.9392 37.8816C87.567 38.6274 86.3122 41.1402 85.6287 42.509C85.5651 42.6369 85.4264 42.709 85.2851 42.6876C85.1439 42.6665 85.0325 42.5569 85.0092 42.4163C84.7576 40.9069 84.2955 38.1367 84.1581 37.3142C84.1347 37.1736 84.0232 37.064 83.8821 37.0429C83.0577 36.9188 80.28 36.5024 78.767 36.2756C78.6259 36.2545 78.5144 36.1448 78.4909 36.0039C78.4676 35.8633 78.5373 35.7232 78.6639 35.6574C80.0214 34.9517 82.5136 33.656 83.2531 33.2715C83.3797 33.2057 83.4496 33.066 83.4261 32.925C83.289 32.1024 82.8269 29.3322 82.5752 27.8234Z" fill="#FBCB22"/>
<path fill-rule="evenodd" clip-rule="evenodd" d="M75.8042 37.8521C75.715 37.7408 75.7077 37.5845 75.786 37.4653C75.8645 37.3459 76.0108 37.2908 76.1485 37.3284C77.0879 37.5857 78.4409 37.9563 78.9766 38.1031C79.1142 38.1408 79.2605 38.0857 79.3389 37.9664C79.6439 37.5024 80.4147 36.3299 80.9497 35.516C81.028 35.3969 81.1744 35.3415 81.312 35.3793C81.4498 35.4169 81.5475 35.5391 81.5542 35.6815C81.5996 36.6545 81.6653 38.0561 81.6912 38.6107C81.6978 38.7533 81.7956 38.8753 81.9332 38.9131C82.4689 39.0598 83.8222 39.4306 84.7615 39.6879C84.8993 39.7255 84.9968 39.8476 85.0037 39.9901C85.0103 40.1328 84.9244 40.2635 84.7908 40.314C83.8795 40.6577 82.567 41.1533 82.0473 41.3494C81.9138 41.3999 81.8279 41.5306 81.8346 41.673C81.8607 42.2278 81.9262 43.6292 81.9718 44.6023C81.9785 44.7447 81.8926 44.8754 81.7591 44.9259C81.6254 44.9761 81.4747 44.935 81.3855 44.8237C80.7768 44.0633 79.8999 42.9678 79.5528 42.5343C79.4636 42.4229 79.3127 42.3817 79.1792 42.432C78.6598 42.6282 77.3471 43.1236 76.4359 43.4677C76.3024 43.518 76.1515 43.4768 76.0624 43.3652C75.9732 43.2539 75.9657 43.0978 76.0442 42.9784C76.5792 42.1645 77.3498 40.9922 77.655 40.528C77.7333 40.4089 77.726 40.2525 77.6368 40.1412C77.2897 39.7076 76.4129 38.6125 75.8042 37.8521Z" fill="#FDE282"/>
</svg>
