<svg width="165" height="105" viewBox="0 0 165 105" fill="none" xmlns="http://www.w3.org/2000/svg">
<path opacity="0.59" d="M117.062 84.2298L117.851 84.6935L117.75 85.6032L118.435 84.9959L119.269 85.3726L118.903 84.5336L119.52 83.8567L118.608 83.9455L118.155 83.1504L117.958 84.0442L117.062 84.2298Z" fill="#F29A00"/>
<path opacity="0.4466" d="M168.955 24.9845L165.654 24.3936L164.844 21.1396L163.262 24.0964L159.917 23.8613L162.24 26.2796L160.983 29.3885L164.001 27.9263L166.569 30.0826L166.111 26.7608L168.955 24.9845Z" fill="#F29A00"/>
<path opacity="0.495" d="M148.947 51.0412L152.038 49.8976L154.346 52.2507L154.213 48.9577L157.164 47.4902L153.991 46.5988L153.508 43.3389L151.679 46.0809L148.429 45.5334L150.472 48.1195L148.947 51.0412Z" fill="#F29A00"/>
<path opacity="0.846" d="M110.256 -3.51633L105.403 -3.41876L103.33 -7.80762L101.923 -3.16222L97.1083 -2.5468L101.092 0.22674L100.189 4.99597L104.058 2.06461L108.315 4.39677L106.722 -0.188514L110.256 -3.51633Z" fill="#F29A00"/>
<path opacity="0.1361" d="M31.6289 -0.621449L29.7437 -1.10943L29.418 -3.0293L28.3715 -1.38708L26.4448 -1.67078L27.6834 -0.167965L26.8182 1.57672L28.6301 0.863344L30.0221 2.22521L29.9035 0.281399L31.6289 -0.621449Z" fill="#F29A00"/>
<path opacity="0.6098" d="M104.605 11.409L106.762 12.1813L106.94 14.4659L108.341 12.6528L110.568 13.1902L109.277 11.2974L110.476 9.34509L108.277 9.98817L106.791 8.24414L106.723 10.5346L104.605 11.409Z" fill="#F29A00"/>
<path opacity="0.8386" d="M70.7732 24.1719L70.3547 25.4107L69.053 25.5353L70.1019 26.3161L69.8182 27.5928L70.8849 26.8364L72.0112 27.5007L71.6216 26.2525L72.6016 25.3865L71.294 25.3713L70.7732 24.1719Z" fill="#F29A00"/>
<path opacity="0.3251" d="M83.4459 54.5061L84.1887 53.3913L85.5098 53.6134L84.6791 52.5624L85.2985 51.3746L84.0424 51.8399L83.1041 50.8838L83.1584 52.2222L81.9591 52.8191L83.2489 53.1811L83.4459 54.5061Z" fill="#F29A00"/>
<path opacity="0.9233" d="M56.0743 7.64981L58.3644 6.82947L60.0493 8.58394L59.9767 6.15253L62.166 5.09226L59.8313 4.40978L59.4994 2L58.1289 4.00972L55.7345 3.58069L57.2222 5.50519L56.0743 7.64981Z" fill="#F29A00"/>
<path opacity="0.5974" d="M135.212 5.32299L131.316 7.5635L127.678 4.92383L128.605 9.3217L124.97 11.9656L129.439 12.4429L130.831 16.7164L132.666 12.6139L137.16 12.6112L133.825 9.59806L135.212 5.32299Z" fill="#F29A00"/>
<path opacity="0.15" d="M158.324 10.7207L157.395 11.9163L155.924 11.5574L156.774 12.8102L155.978 14.0981L157.433 13.6769L158.412 14.8319L158.46 13.3187L159.861 12.7445L158.437 12.2305L158.324 10.7207Z" fill="#F29A00"/>
<path opacity="0.4888" d="M133.061 55.8827L133.118 54.7001L134.221 54.2687L133.114 53.8489L133.044 52.667L132.303 53.5902L131.157 53.2912L131.806 54.2814L131.168 55.2786L132.31 54.9674L133.061 55.8827Z" fill="#F29A00"/>
<path opacity="0.5438" d="M87.9199 1.06645L85.1143 1.43923L83.627 -0.96875L83.1145 1.8147L80.3648 2.48521L82.8537 3.83266L82.6416 6.65499L84.6922 4.70435L87.3109 5.77814L86.0893 3.2251L87.9199 1.06645Z" fill="#F29A00"/>
<path opacity="0.8" d="M145.039 76.0766L145.625 74.2761L147.508 74.0746L145.976 72.9611L146.367 71.1084L144.834 72.2207L143.193 71.2771L143.777 73.0781L142.372 74.3477L144.266 74.3484L145.039 76.0766Z" fill="#F29A00"/>
<path opacity="0.873" d="M124.127 10.016L122.647 8.88982L123.07 7.0791L121.542 8.13834L119.95 7.17668L120.486 8.95739L119.079 10.1738L120.938 10.2153L121.66 11.9287L122.274 10.1734L124.127 10.016Z" fill="#F29A00"/>
<path opacity="0.1039" d="M153.33 1.40584L151.072 -0.159536L151.577 -2.86035L149.391 -1.19651L146.978 -2.51178L147.885 0.0819452L145.889 1.96989L148.636 1.90901L149.814 4.39112L150.605 1.75982L153.33 1.40584Z" fill="#F29A00"/>
<path opacity="0.4558" d="M156.372 90.2806L156.117 89.0401L157.145 88.2999L155.886 88.1594L155.5 86.9531L154.977 88.1067L153.71 88.1013L154.646 88.9549L154.249 90.1578L155.35 89.5318L156.372 90.2806Z" fill="#F29A00"/>
<path opacity="0.1051" d="M95.5 30.8683L93.9447 30.6878L93.4737 29.1943L92.8212 30.6177L91.2554 30.6042L92.4075 31.6646L91.9108 33.1497L93.2753 32.3816L94.5341 33.3129L94.2254 31.7778L95.5 30.8683Z" fill="#F29A00"/>
<path opacity="0.4243" d="M112.663 31.5422L112.924 29.6496L114.758 29.114L113.038 28.2808L113.096 26.3711L111.772 27.7488L109.974 27.104L110.875 28.7887L109.706 30.3L111.587 29.9634L112.663 31.5422Z" fill="#F29A00"/>
<path opacity="0.3929" d="M124.98 42.8401L125.977 43.6198L125.672 44.8479L126.722 44.1413L127.796 44.8103L127.448 43.5938L128.416 42.7791L127.152 42.7339L126.676 41.5615L126.242 42.75L124.98 42.8401Z" fill="#F29A00"/>
<path opacity="0.9513" d="M137.262 31.2462L140.702 28.9811L144.175 31.1941L143.084 27.2229L146.262 24.6034L142.148 24.414L140.638 20.582L139.187 24.4363L135.076 24.6874L138.293 27.2589L137.262 31.2462Z" fill="#F29A00"/>
<path opacity="0.33" d="M164.233 57.5521L165.178 58.1451L165.023 59.2497L165.879 58.5345L166.881 59.0233L166.466 57.9881L167.24 57.1855L166.127 57.2611L165.604 56.2764L165.332 57.3581L164.233 57.5521Z" fill="#F29A00"/>
</svg>
