<svg width="196" height="114" viewBox="0 0 196 114" fill="none" xmlns="http://www.w3.org/2000/svg">
<path d="M111.486 35.5975C112.079 35.4153 113.645 35.2423 115.175 36.0074" stroke="black" stroke-linecap="round"/>
<path d="M106.02 42.7016C107.077 42.7016 107.933 41.784 107.933 40.6521C107.933 39.5201 107.077 38.6025 106.02 38.6025C104.964 38.6025 104.107 39.5201 104.107 40.6521C104.107 41.784 104.964 42.7016 106.02 42.7016Z" fill="black"/>
<path d="M121.598 45.435C122.655 45.435 123.511 44.5174 123.511 43.3855C123.511 42.2535 122.655 41.3359 121.598 41.3359C120.542 41.3359 119.686 42.2535 119.686 43.3855C119.686 44.5174 120.542 45.435 121.598 45.435Z" fill="black"/>
<path d="M101.375 37.3732C101.512 36.5078 102.359 34.8591 104.654 35.1871" stroke="black" stroke-linecap="round"/>
<path d="M118.865 37.1004C119.958 36.144 122.691 34.805 124.877 37.1004" stroke="black" stroke-linecap="round"/>
<path d="M112.989 39.4229C114.265 41.518 116.05 46.0086 112.989 47.211L111.486 47.7575" stroke="black" stroke-linecap="round"/>
<path d="M107.799 51.9932C108.118 52.8586 109.329 54.2886 111.625 53.0862" stroke="black" stroke-linecap="round"/>
<path d="M63.8 31.9079C59.3184 46.6644 71.7702 57.3675 78.5566 60.8744C84.6778 57.1579 93.4041 55.2724 97.1388 54.7259C92.4933 50.9001 91.0813 43.8861 90.717 40.6525C88.2576 41.4723 81.6991 38.3297 84.7051 31.9079C87.1099 26.7705 89.7149 29.4029 90.717 31.3614L97.4121 34.3673C97.4121 28.1368 101.693 26.0327 103.834 25.7594C105.146 24.8849 106.567 22.0246 107.113 20.7039C107.769 25.8414 114.491 29.5851 117.771 30.8149C122.034 27.4263 125.467 29.4029 126.652 30.8149L129.658 30.4049C135.533 28.4011 146.081 21.551 141.272 10.1831C136.462 -1.1849 126.515 0.891942 122.143 3.35136C107.168 -6.59562 92.1287 7.95129 86.4813 16.4683C80.7881 15.4662 68.2817 17.1514 63.8 31.9079Z" fill="black"/>
<path d="M97.2772 34.5037L90.7188 31.0879" stroke="black" stroke-linecap="round"/>
<path d="M111.349 34.2312C111.349 38.9437 108.128 42.5659 104.38 42.5659C100.633 42.5659 97.4121 38.9437 97.4121 34.2312C97.4121 29.5184 100.633 25.8965 104.38 25.8965C108.128 25.8965 111.349 29.5184 111.349 34.2312Z" stroke="black"/>
<path d="M129.386 37.237C129.386 41.9496 126.165 45.5717 122.418 45.5717C118.67 45.5717 115.449 41.9496 115.449 37.237C115.449 32.5242 118.67 28.9023 122.418 28.9023C126.165 28.9023 129.386 32.5242 129.386 37.237Z" stroke="black"/>
<path d="M129.66 63.5757C140.153 55.159 134.169 43.8094 129.796 39.1182C127.392 50.4861 121.826 55.3776 119.412 56.4707L123.238 58.5202L129.66 63.5757Z" fill="black"/>
<path d="M91.5377 34.2306C91.31 31.7256 88.3951 25.7593 85.2525 31.3613C83.8861 33.9117 82.9024 39.3681 89.8981 40.7891" stroke="black" stroke-linecap="round"/>
<path d="M89.2148 33.2744C88.5773 33.821 87.6298 35.2419 88.9415 36.5536" stroke="black" stroke-linecap="round"/>
<path d="M128.841 40.3799C128.076 44.7522 126.381 48.7127 124.605 51.174C123.494 52.713 121.695 54.6557 119.4 56.3491" stroke="black" stroke-linecap="round"/>
<path d="M90.5828 40.7891C90.4918 46.3454 92.6599 54.5891 102.607 58.9614C104.137 59.6339 105.641 60.0198 107.103 60.1753" stroke="black" stroke-linecap="round"/>
<path d="M118.455 65.656C116.269 65.1095 114.174 66.8857 113.399 67.8422C112.989 68.7076 112.798 70.4109 115.312 70.3016C118.455 70.1649 119.411 65.656 123.1 72.8976C126.052 78.6909 126.243 90.0679 125.97 95.0324" stroke="black" stroke-linecap="round" stroke-linejoin="round"/>
<path d="M111.302 64.1533C110.589 65.7019 110.01 68.6076 113.399 67.8424" stroke="black" stroke-linecap="round" stroke-linejoin="round"/>
<path d="M112.62 58.8242C110.708 59.644 107.933 62.5953 109.026 64.5629C109.163 64.7905 109.573 65.2187 110.12 65.1094C110.359 65.0616 110.749 64.6448 111.302 64.153C112.327 63.2405 113.912 62.0696 116.131 62.5133" stroke="black" stroke-linecap="round" stroke-linejoin="round"/>
<path d="M150.858 105.742C152.224 99.0469 150.893 83.3367 134.169 68.2523L123.102 58.5513L116.133 54.8621L114.767 54.5889L109.575 55.8186L109.028 56.3651L107.252 59.6443C106.979 60.3275 108.154 61.12 110.122 60.4641" stroke="black" stroke-linecap="round" stroke-linejoin="round"/>
<path d="M96.7306 55.2725C87.8494 56.4565 64.7938 61.5475 50.8215 82.1894C37.6533 101.643 52.5464 109.841 63.6138 110.251" stroke="black" stroke-linecap="round" stroke-linejoin="round"/>
<path d="M1.37891 112.983L63.0009 109.978" stroke="black" stroke-linecap="round" stroke-linejoin="round"/>
<path d="M79.8066 109.295L194.62 104.293" stroke="black" stroke-linecap="round"/>
<path d="M69.5719 110.462C69.7408 110.985 69.6164 111.362 68.9584 111.419C67.0108 111.586 64.6979 108.566 63.7852 107.036" stroke="black" stroke-linecap="round"/>
<path d="M69.5666 104.531C70.5386 106.084 72.2337 108.477 73.7197 109.835C73.5841 110.878 72.5646 112.464 69.5715 110.461C69.1157 109.047 66.5234 106.562 66.5234 106.409" stroke="black" stroke-linecap="round"/>
<path d="M72.2037 103.071C74.0633 105.123 77.4379 109.52 76.0585 110.688C75.8139 110.895 75.5021 110.915 75.1455 110.794C74.7208 110.649 74.2327 110.304 73.7195 109.836C72.2335 108.478 70.5384 106.085 69.5664 104.532" stroke="black" stroke-linecap="round"/>
<path d="M56.918 108.419C60.0286 104.523 69.9723 96.0798 75.6527 101.193C77.9181 103.453 80.7415 107.54 79.1186 109.209C78.307 109.835 76.5504 109 75.4174 107.331" stroke="black" stroke-linecap="round"/>
<path d="M68.0006 86.2031C66.0421 87.7517 62.9725 91.7778 66.361 95.4943" stroke="black" stroke-linecap="round"/>
</svg>
