<svg width="1288" height="152" viewBox="0 0 1288 152" fill="none" xmlns="http://www.w3.org/2000/svg">
<path d="M576.762 -107.451H696.734L676.05 195.928H594.689L576.762 -107.451Z" fill="url(#paint0_linear_786_20964)" fill-opacity="0.1"/>
<path d="M818.996 -136.08L918.1 -68.4651L700.152 214.283L632.944 168.429L818.996 -136.08Z" fill="url(#paint1_linear_786_20964)" fill-opacity="0.1"/>
<path d="M1629 -168.462L1665.15 -54.0647L665.977 239.974L641.462 162.394L1629 -168.462Z" fill="url(#paint2_linear_786_20964)" fill-opacity="0.1"/>
<path d="M-122.773 -94.915L-158.922 19.4822L607.503 239.975L632.018 162.395L-122.773 -94.915Z" fill="url(#paint3_linear_786_20964)" fill-opacity="0.1"/>
<path d="M462.492 -113.975L363.388 -46.3596L566.255 214.284L633.464 168.43L462.492 -113.975Z" fill="url(#paint4_linear_786_20964)" fill-opacity="0.1"/>
<path d="M1283.46 153.135L1281.12 153.562L1280.26 148.935L1282.6 148.508L1283.46 153.135Z" fill="#009245"/>
<path d="M1242.32 148.491L1230.42 142.555L1233.42 136.676L1245.32 142.613L1242.32 148.491Z" fill="#FCEE21"/>
<path d="M1288.82 133.284C1288.95 131.905 1288.12 130.875 1287.25 130.635C1287.29 130.931 1287.25 131.2 1287.15 131.415C1287.78 131.746 1288.27 132.801 1287.7 133.942C1288.1 133.813 1288.48 133.591 1288.82 133.284Z" fill="#662D91"/>
<path d="M1262.13 133.223C1261.88 135.155 1263.01 136.638 1264.22 137.01C1264.17 136.593 1264.24 136.217 1264.39 135.916C1263.52 135.426 1262.88 133.924 1263.72 132.342C1263.16 132.509 1262.61 132.804 1262.13 133.223Z" fill="#ED1E79"/>
<path d="M1266.3 68.7253C1268.08 70.3552 1268.43 72.9624 1267.17 74.928C1267.96 75.3501 1268.74 75.7716 1269.52 76.1937C1271.06 73.0971 1270.17 69.3933 1267.43 67.3637C1267.06 67.8155 1266.68 68.2707 1266.3 68.7253Z" fill="#009245"/>
<path d="M1292.93 102.019L1289.94 104.802L1284.31 98.8835L1287.3 96.1007L1292.93 102.019Z" fill="#FCEE21"/>
<path d="M1267.24 92.3165L1263.24 97.7637L1258.48 94.3427L1262.48 88.8956L1267.24 92.3165Z" fill="#FBB03B"/>
<path d="M1195.44 124.641C1193.66 130.86 1187.76 134.901 1181.45 134.347C1181.39 136.724 1181.32 139.102 1181.26 141.48C1190.68 141.317 1198.57 134.639 1200.13 125.65C1198.57 125.313 1197 124.978 1195.44 124.641Z" fill="#0071BC"/>
<path d="M1146.94 142.477C1144.89 144 1142.08 143.877 1140.25 142.222C1139.66 142.95 1139.07 143.675 1138.48 144.403C1141.45 146.56 1145.52 146.329 1148.16 143.894C1147.75 143.422 1147.34 142.95 1146.94 142.477Z" fill="#009245"/>
<path d="M1174.97 149.702C1174.8 149.327 1174.92 148.896 1175.25 148.67C1175.15 148.551 1175.06 148.434 1174.97 148.315C1174.52 148.699 1174.41 149.339 1174.7 149.839C1174.79 149.794 1174.88 149.747 1174.97 149.702Z" fill="#C1272D"/>
<path d="M1185.49 141.024L1179.52 141.449L1179.31 138.503L1185.27 138.078L1185.49 141.024Z" fill="#009245"/>
<path d="M1197.22 131.889L1192.31 130.63L1194.86 120.892L1199.77 122.152L1197.22 131.889Z" fill="#FCEE21"/>
<path d="M1177.14 86.119L1168.49 85.2686L1168.77 82.4176L1177.42 83.2681L1177.14 86.119Z" fill="#FBB03B"/>
<path d="M1220.97 74.8096C1221.47 71.5492 1219.62 68.9956 1217.58 68.3188C1217.65 69.0276 1217.51 69.6614 1217.25 70.1622C1218.7 71.0251 1219.73 73.593 1218.24 76.2376C1219.2 75.9781 1220.14 75.4999 1220.97 74.8096Z" fill="#662D91"/>
<path d="M1220.46 60.2648L1216.76 63.9902L1209.73 57.1437L1213.43 53.4182L1220.46 60.2648Z" fill="#0071BC"/>
<path d="M1282.69 82.0842C1281.73 81.368 1281.43 80.1031 1281.95 79.074C1281.54 78.9049 1281.13 78.7357 1280.73 78.5678C1280.13 80.1682 1280.75 81.9473 1282.2 82.8101C1282.36 82.5685 1282.53 82.3261 1282.69 82.0842Z" fill="#C1272D"/>
<path d="M1281.88 36.3472L1277.24 41.9297L1265.94 32.7443L1270.58 27.1617L1281.88 36.3472Z" fill="#009245"/>
<path d="M1248.77 88.1294L1244.35 88.0605L1244.49 79.2998L1248.91 79.3686L1248.77 88.1294Z" fill="#FCEE21"/>
<path d="M1190.56 104.77L1184.36 105.948L1181.97 93.6572L1188.18 92.4792L1190.56 104.77Z" fill="#662D91"/>
<path d="M1219.01 21.4331L1217.96 22.3711L1215.11 19.2552L1216.16 18.3172L1219.01 21.4331Z" fill="#FBB03B"/>
<path d="M1261.18 25.0418C1262.62 21.7736 1261.4 18.601 1259.46 17.3355C1259.34 18.0947 1259.01 18.718 1258.6 19.1713C1259.87 20.4691 1260.23 23.4324 1257.93 25.7885C1259.01 25.7788 1260.12 25.5369 1261.18 25.0418Z" fill="#662D91"/>
<path d="M1249.45 81.361L1239.83 80.1367L1240.5 74.971L1250.13 76.1953L1249.45 81.361Z" fill="#ED1E79"/>
<path d="M1159.79 128.246L1158.44 128.65L1157.21 124.63L1158.57 124.225L1159.79 128.246Z" fill="#FBB03B"/>
<path d="M1196.36 149.341C1199.07 146.993 1199.35 143.611 1198.13 141.645C1197.7 142.279 1197.13 142.706 1196.56 142.941C1197.15 144.652 1196.2 147.482 1193.1 148.642C1194.08 149.088 1195.19 149.339 1196.36 149.341Z" fill="#662D91"/>
<path d="M-2.99258 154.133L-0.65625 154.56L0.206967 149.933L-2.12936 149.506L-2.99258 154.133Z" fill="#009245"/>
<path d="M38.134 149.489L50.0352 143.553L47.0378 137.674L35.1367 143.611L38.134 149.489Z" fill="#FCEE21"/>
<path d="M18.343 134.221C18.5916 136.153 17.4656 137.636 16.2502 138.008C16.3022 137.591 16.2275 137.215 16.0806 136.914C16.9487 136.424 17.5927 134.922 16.7499 133.34C17.3135 133.507 17.8619 133.802 18.343 134.221Z" fill="#ED1E79"/>
<path d="M14.1668 69.7234C12.395 71.3532 12.045 73.9605 13.2984 75.9261C12.5157 76.3482 11.7337 76.7697 10.951 77.1917C9.41272 74.0952 10.3038 70.3914 13.036 68.3617C13.4136 68.8136 13.7898 69.2688 14.1668 69.7234Z" fill="#009245"/>
<path d="M13.2333 93.3146L17.2344 98.7617L21.9946 95.3408L17.9935 89.8936L13.2333 93.3146Z" fill="#FBB03B"/>
<path d="M85.0426 125.639C86.8183 131.858 92.7165 135.9 99.0326 135.345C99.0932 137.722 99.1543 140.1 99.2154 142.478C89.8023 142.315 81.9068 135.637 80.345 126.648C81.9107 126.311 83.4783 125.976 85.0426 125.639Z" fill="#0071BC"/>
<path d="M133.535 143.475C135.58 144.998 138.388 144.875 140.223 143.22C140.812 143.948 141.401 144.673 141.989 145.401C139.017 147.558 134.956 147.327 132.312 144.892C132.721 144.42 133.127 143.948 133.535 143.475Z" fill="#009245"/>
<path d="M105.501 150.7C105.669 150.325 105.546 149.894 105.218 149.668C105.312 149.549 105.406 149.432 105.499 149.313C105.951 149.698 106.061 150.337 105.77 150.837C105.68 150.793 105.59 150.745 105.501 150.7Z" fill="#C1272D"/>
<path d="M94.9895 142.022L100.953 142.447L101.168 139.501L95.204 139.076L94.9895 142.022Z" fill="#009245"/>
<path d="M83.2432 132.887L88.1602 131.628L85.6106 121.89L80.6937 123.15L83.2432 132.887Z" fill="#FCEE21"/>
<path d="M103.339 87.117L111.988 86.2666L111.702 83.4157L103.053 84.2661L103.339 87.117Z" fill="#FBB03B"/>
<path d="M59.5046 75.8076C59.0064 72.5472 60.8539 69.9936 62.8971 69.3169C62.825 70.0256 62.966 70.6595 63.2254 71.1603C61.7749 72.0232 60.7453 74.591 62.2339 77.2356C61.2732 76.9761 60.3357 76.498 59.5046 75.8076Z" fill="#662D91"/>
<path d="M60.0029 61.2628L63.7109 64.9883L70.7416 58.1417L67.0335 54.4162L60.0029 61.2628Z" fill="#0071BC"/>
<path d="M-2.22294 83.0823C-1.26704 82.366 -0.963676 81.1012 -1.47966 80.072C-1.07318 79.9029 -0.666696 79.7338 -0.26188 79.5658C0.339115 81.1662 -0.287316 82.9453 -1.73418 83.8081C-1.89644 83.5666 -2.05928 83.3241 -2.22294 83.0823Z" fill="#C1272D"/>
<path d="M-1.41474 37.3452L3.22266 42.9277L14.5245 33.7423L9.88707 28.1598L-1.41474 37.3452Z" fill="#009245"/>
<path d="M31.7015 89.1274L36.125 89.0586L35.9857 80.2978L31.5622 80.3666L31.7015 89.1274Z" fill="#FCEE21"/>
<path d="M89.916 105.768L96.1211 106.946L98.5061 94.6553L92.301 93.4772L89.916 105.768Z" fill="#662D91"/>
<path d="M61.4624 22.4311L62.5117 23.3691L65.3586 20.2533L64.3093 19.3153L61.4624 22.4311Z" fill="#FBB03B"/>
<path d="M19.2839 26.0399C17.8495 22.7717 19.0642 19.5991 21.0089 18.3336C21.1317 19.0928 21.4556 19.7161 21.8686 20.1693C20.596 21.4672 20.2386 24.4304 22.533 26.7866C21.4591 26.7768 20.3462 26.5349 19.2839 26.0399Z" fill="#662D91"/>
<path d="M31.016 82.359L40.6406 81.1348L39.969 75.9691L30.3444 77.1933L31.016 82.359Z" fill="#ED1E79"/>
<path d="M-2.99258 154.133L-0.65625 154.56L0.206967 149.933L-2.12936 149.506L-2.99258 154.133Z" fill="#009245"/>
<path d="M38.134 149.489L50.0352 143.553L47.0378 137.674L35.1367 143.611L38.134 149.489Z" fill="#FCEE21"/>
<path d="M18.343 134.221C18.5916 136.153 17.4656 137.636 16.2502 138.008C16.3022 137.591 16.2275 137.215 16.0806 136.914C16.9487 136.424 17.5927 134.922 16.7499 133.34C17.3135 133.507 17.8619 133.802 18.343 134.221Z" fill="#ED1E79"/>
<path d="M14.1668 69.7234C12.395 71.3532 12.045 73.9605 13.2984 75.9261C12.5157 76.3482 11.7337 76.7697 10.951 77.1917C9.41272 74.0952 10.3038 70.3914 13.036 68.3617C13.4136 68.8136 13.7898 69.2688 14.1668 69.7234Z" fill="#009245"/>
<path d="M13.2333 93.3146L17.2344 98.7617L21.9946 95.3408L17.9935 89.8936L13.2333 93.3146Z" fill="#FBB03B"/>
<path d="M85.0426 125.639C86.8183 131.858 92.7165 135.9 99.0326 135.345C99.0932 137.722 99.1543 140.1 99.2154 142.478C89.8023 142.315 81.9068 135.637 80.345 126.648C81.9107 126.311 83.4783 125.976 85.0426 125.639Z" fill="#0071BC"/>
<path d="M133.535 143.475C135.58 144.998 138.388 144.875 140.223 143.22C140.812 143.948 141.401 144.673 141.989 145.401C139.017 147.558 134.956 147.327 132.312 144.892C132.721 144.42 133.127 143.948 133.535 143.475Z" fill="#009245"/>
<path d="M105.501 150.7C105.669 150.325 105.546 149.894 105.218 149.668C105.312 149.549 105.406 149.432 105.499 149.313C105.951 149.698 106.061 150.337 105.77 150.837C105.68 150.793 105.59 150.745 105.501 150.7Z" fill="#C1272D"/>
<path d="M94.9895 142.022L100.953 142.447L101.168 139.501L95.204 139.076L94.9895 142.022Z" fill="#009245"/>
<path d="M83.2432 132.887L88.1602 131.628L85.6106 121.89L80.6937 123.15L83.2432 132.887Z" fill="#FCEE21"/>
<path d="M103.339 87.117L111.988 86.2666L111.702 83.4157L103.053 84.2661L103.339 87.117Z" fill="#FBB03B"/>
<path d="M59.5046 75.8076C59.0064 72.5472 60.8539 69.9936 62.8971 69.3169C62.825 70.0256 62.966 70.6595 63.2254 71.1603C61.7749 72.0232 60.7453 74.591 62.2339 77.2356C61.2732 76.9761 60.3357 76.498 59.5046 75.8076Z" fill="#662D91"/>
<path d="M60.0029 61.2628L63.7109 64.9883L70.7416 58.1417L67.0335 54.4162L60.0029 61.2628Z" fill="#0071BC"/>
<path d="M-2.22294 83.0823C-1.26704 82.366 -0.963676 81.1012 -1.47966 80.072C-1.07318 79.9029 -0.666696 79.7338 -0.26188 79.5658C0.339115 81.1662 -0.287316 82.9453 -1.73418 83.8081C-1.89644 83.5666 -2.05928 83.3241 -2.22294 83.0823Z" fill="#C1272D"/>
<path d="M-1.41474 37.3452L3.22266 42.9277L14.5245 33.7423L9.88707 28.1598L-1.41474 37.3452Z" fill="#009245"/>
<path d="M31.7015 89.1274L36.125 89.0586L35.9857 80.2978L31.5622 80.3666L31.7015 89.1274Z" fill="#FCEE21"/>
<path d="M89.916 105.768L96.1211 106.946L98.5061 94.6553L92.301 93.4772L89.916 105.768Z" fill="#662D91"/>
<path d="M61.4624 22.4311L62.5117 23.3691L65.3586 20.2533L64.3093 19.3153L61.4624 22.4311Z" fill="#FBB03B"/>
<path d="M19.2839 26.0399C17.8495 22.7717 19.0642 19.5991 21.0089 18.3336C21.1317 19.0928 21.4556 19.7161 21.8686 20.1693C20.596 21.4672 20.2386 24.4304 22.533 26.7866C21.4591 26.7768 20.3462 26.5349 19.2839 26.0399Z" fill="#662D91"/>
<path d="M31.016 82.359L40.6406 81.1348L39.969 75.9691L30.3444 77.1933L31.016 82.359Z" fill="#ED1E79"/>
<path d="M120.68 129.247L122.035 129.651L123.262 125.631L121.907 125.226L120.68 129.247Z" fill="#FBB03B"/>
<path d="M84.1091 150.342C81.4 147.994 81.127 144.612 82.3382 142.646C82.7773 143.28 83.3395 143.707 83.9087 143.942C83.3191 145.653 84.2766 148.483 87.3691 149.643C86.394 150.088 85.2833 150.34 84.1091 150.342Z" fill="#662D91"/>
<defs>
<linearGradient id="paint0_linear_786_20964" x1="637" y1="-40.5" x2="637" y2="187.5" gradientUnits="userSpaceOnUse">
<stop stop-color="white"/>
<stop offset="1" stop-color="white" stop-opacity="0"/>
</linearGradient>
<linearGradient id="paint1_linear_786_20964" x1="824.429" y1="-37.1598" x2="673.475" y2="184.096" gradientUnits="userSpaceOnUse">
<stop stop-color="white"/>
<stop offset="1" stop-color="white" stop-opacity="0"/>
</linearGradient>
<linearGradient id="paint2_linear_786_20964" x1="1428.02" y1="-41.7805" x2="681.796" y2="194.023" gradientUnits="userSpaceOnUse">
<stop stop-color="white"/>
<stop offset="1" stop-color="white" stop-opacity="0"/>
</linearGradient>
<linearGradient id="paint3_linear_786_20964" x1="26.8392" y1="15.5358" x2="598.15" y2="196.067" gradientUnits="userSpaceOnUse">
<stop stop-color="white"/>
<stop offset="1" stop-color="white" stop-opacity="0"/>
</linearGradient>
<linearGradient id="paint4_linear_786_20964" x1="453.731" y1="-19.9324" x2="593.351" y2="184.711" gradientUnits="userSpaceOnUse">
<stop stop-color="white"/>
<stop offset="1" stop-color="white" stop-opacity="0"/>
</linearGradient>
</defs>
</svg>
